<svg width="86" height="101" viewBox="0 0 86 101" fill="none" xmlns="http://www.w3.org/2000/svg">
<g clip-path="url(#clip0_1591_4356)">
<path d="M45.7059 21.3687C47.2467 22.0294 49.2892 22.9223 51.6721 23.9759C51.6005 24.0651 51.5109 24.1723 51.4392 24.2973C50.4001 25.958 49.0921 27.2259 47.5513 28.0294C45.8671 27.2973 44.3263 26.6187 42.9467 26.0294C41.5851 26.6187 40.0263 27.2973 38.3601 28.0294C36.8013 27.2259 35.4934 25.9401 34.4184 24.208C34.3646 24.1187 34.3109 24.0294 34.2392 23.9759C36.6938 22.9044 38.7721 21.9759 40.3309 21.2973C40.5101 17.6544 42.463 15.8687 44.0217 14.4223C44.6309 13.8687 45.2042 13.333 45.688 12.708C46.8526 11.1187 46.8884 8.458 45.7417 7.02943C45.2759 6.44015 44.1113 5.79729 42.6959 5.72586C41.8717 5.67229 40.7071 5.85086 39.8113 6.79729C37.8763 8.81515 38.6646 10.333 39.0946 10.8687C40.0084 12.0473 39.7934 13.7437 38.6288 14.6544C37.4463 15.5473 35.7442 15.3509 34.8305 14.1723C32.6984 11.458 32.2146 6.99372 35.9055 3.10086C37.6613 1.19015 40.1517 0.22586 42.893 0.333003C45.688 0.440145 48.3934 1.708 49.9342 3.65443C52.6217 6.97586 52.6396 12.3509 49.988 15.8866C49.2355 16.9044 48.4113 17.6544 47.6767 18.333C46.4763 19.458 45.8313 20.0294 45.7059 21.3509V21.3687Z" fill="#003C57"/>
<path d="M86 38.1722L75.25 53.9044L68.0833 48.0651V100.333H17.9167V48.0294L10.535 53.8687L0 38.1722L20.5146 24.1187C20.5146 24.1187 21.715 23.6008 22.3242 23.583C26.0508 23.5294 29.7775 23.5651 33.5221 23.5472C33.8983 23.5472 34.1312 23.6544 34.3283 23.8865C34.4 23.9401 34.4538 24.0294 34.5075 24.1187C35.5825 25.833 36.8904 27.1187 38.4313 27.9222C39.8825 28.708 41.5308 29.0651 43.3942 28.9937C44.9529 28.9401 46.3504 28.583 47.5867 27.9222C49.1275 27.1187 50.4175 25.8687 51.4567 24.208C51.5283 24.083 51.6179 23.9758 51.6896 23.8865C51.9225 23.6365 52.2092 23.5472 52.6213 23.5472C56.33 23.583 60.0388 23.5472 63.7475 23.583C64.3029 23.583 64.9121 23.7437 65.36 24.0294C72.1504 28.4937 86 38.1722 86 38.1722Z" fill="#206095"/>
</g>
<defs>
<clipPath id="clip0_1591_4356">
<rect width="86" height="100" fill="white" transform="translate(0 0.333008)"/>
</clipPath>
</defs>
</svg>
