<svg width="81" height="89" viewBox="0 0 81 89" fill="none" xmlns="http://www.w3.org/2000/svg">
<g clip-path="url(#clip0_1591_4339)">
<path d="M15.1875 74.2142C15.1875 71.8776 13.2987 69.9834 10.9688 69.9834C8.6388 69.9834 6.75 71.8776 6.75 74.2142V84.368C6.75 86.7046 8.6388 88.5988 10.9688 88.5988C13.2987 88.5988 15.1875 86.7046 15.1875 84.368V74.2142Z" fill="#206095"/>
<path d="M74.25 74.2142C74.25 71.8776 72.3612 69.9834 70.0312 69.9834C67.7013 69.9834 65.8125 71.8776 65.8125 74.2142V84.368C65.8125 86.7046 67.7013 88.5988 70.0312 88.5988C72.3612 88.5988 74.25 86.7046 74.25 84.368V74.2142Z" fill="#206095"/>
<path d="M18.4106 0.598755H62.5894C69.0187 0.598755 74.25 5.84491 74.25 12.2926V61.5218H6.75V12.2926C6.75 5.84491 11.9812 0.598755 18.4106 0.598755Z" fill="#206095"/>
<path d="M77.1019 32.7526H71.3981C69.2381 32.7526 67.5 34.4956 67.5 36.6618V54.7526H13.5V36.6618C13.5 34.4956 11.7619 32.7526 9.60188 32.7526H3.89812C1.73812 32.7526 0 34.4956 0 36.6618V75.0603H81V36.6618C81 34.4956 79.2619 32.7526 77.1019 32.7526Z" fill="#003C57"/>
</g>
<defs>
<clipPath id="clip0_1591_4339">
<rect width="81" height="88" fill="white" transform="translate(0 0.598755)"/>
</clipPath>
</defs>
</svg>
