<?xml version="1.0" encoding="utf-8"?>
<!-- Generator: Adobe Illustrator 27.2.0, SVG Export Plug-In . SVG Version: 6.00 Build 0)  -->
<svg version="1.1" id="Layer_1" xmlns="http://www.w3.org/2000/svg" xmlns:xlink="http://www.w3.org/1999/xlink" x="0px" y="0px"
	 viewBox="0 0 700 320" style="enable-background:new 0 0 700 320;" xml:space="preserve">
<style type="text/css">
	.st0{opacity:0.6;fill:#F8BE98;}
	.st1{fill:#F8BE98;}
	.st2{fill:none;stroke:#FFFFFF;stroke-width:14.9635;stroke-linecap:round;stroke-linejoin:round;stroke-miterlimit:10;}
	.st3{fill:#FFFFFF;}
	.st4{fill:#A6BFD5;}
	.st5{fill:#E8EFF4;}
	.st6{opacity:0.7;fill:#FFFFFF;}
	.st7{opacity:0.5;fill:#FFFFFF;}
	.st8{fill:#EF8E5C;}
	.st9{fill:#FCD94C;}
	.st10{fill:#FDE999;}
	.st11{fill:#E6602D;}
	.st12{fill:#BCBCBD;}
	.st13{fill:#6390B5;}
	.st14{fill:#FE781F;}
	.st15{opacity:0.85;}
	.st16{fill:#D0D2D5;}
	.st17{opacity:0.7;}
	.st18{opacity:0.5;}
	.st19{opacity:0.25;fill:#E8EFF4;}
	.st20{opacity:0.25;fill:none;stroke:#E8EFF4;stroke-width:18.9141;stroke-miterlimit:10;}
	.st21{fill:#D3DEDE;}
	.st22{fill:#B9D4DB;}
	.st23{fill:#AFD2DE;}
	.st24{fill:#48505B;}
	.st25{fill:#3E302C;}
	.st26{fill:#73512C;}
	.st27{fill:#206095;}
	.st28{clip-path:url(#SVGID_00000158022122319759807140000018422819886461775491_);fill:none;}
	.st29{fill:#FFFFFF;stroke:#F8BE98;stroke-width:3.6185;stroke-miterlimit:10;}
	.st30{fill-rule:evenodd;clip-rule:evenodd;fill:#9D856B;}
	.st31{fill:#9D856B;}
	.st32{fill:#00A3A6;}
	.st33{fill:#B9CA61;}
	.st34{fill:#B25B20;}
	.st35{fill:none;stroke:#C2D175;stroke-width:3.4567;stroke-linecap:round;stroke-miterlimit:10;}
	.st36{fill:#E3E8EA;}
	.st37{clip-path:url(#SVGID_00000129182711703068351590000012400729369152471430_);fill:none;}
	.st38{fill:#003B63;}
	.st39{fill:#4B7684;}
	.st40{fill:#00792A;}
	.st41{fill:none;stroke:#206095;stroke-width:4.8708;stroke-miterlimit:10;}
	.st42{fill:none;stroke:#206095;stroke-width:19.008;stroke-linecap:round;stroke-miterlimit:10;}
	.st43{fill:none;stroke:#003B56;stroke-width:45.6194;stroke-linecap:round;stroke-miterlimit:10;}
	.st44{fill:none;stroke:#A6BFD5;stroke-width:7.6032;stroke-linecap:round;stroke-miterlimit:10;}
	.st45{fill:none;stroke:#E6602D;stroke-width:7.6032;stroke-linecap:round;stroke-miterlimit:10;}
	.st46{fill:none;stroke:#BCBCBD;stroke-width:7.6032;stroke-linecap:round;stroke-miterlimit:10;}
	.st47{fill:#4D778A;}
	.st48{fill:#F5F5F6;}
	.st49{fill:#DCDCDC;}
	.st50{fill:none;stroke:#F8BE98;stroke-width:3.4567;stroke-linecap:round;stroke-miterlimit:10;}
	.st51{fill:#E96F3B;}
	.st52{fill:#D0021B;}
	.st53{fill:#D0021B;stroke:#C2D175;stroke-width:3.4567;stroke-linecap:round;stroke-miterlimit:10;}
	.st54{fill:#FFEFE3;}
	.st55{fill:#EA7541;}
	.st56{fill:#874C2B;}
	.st57{fill:#FFDF03;}
	.st58{fill:#F8E723;}
	.st59{fill:#383939;}
	.st60{fill:#FDDF66;}
	.st61{fill:#E9F5FA;}
	.st62{opacity:0.62;}
	.st63{fill:#FEE4C3;}
	.st64{fill:#99B1BC;}
	.st65{fill:#1B5F97;}
	.st66{fill:#A8BD3A;}
	.st67{fill:#B1C44E;}
	.st68{fill:url(#SVGID_00000036243242955121879020000015111727774957903033_);}
	.st69{fill:#E7F0F6;}
	.st70{fill:#E1BB22;}
	.st71{fill:#E9E9EB;}
	.st72{fill:#EFEFEF;}
	.st73{opacity:0.3;}
	.st74{fill:#CC8E4A;}
	.st75{fill:#996B38;}
	.st76{fill:#D6A56E;}
	.st77{clip-path:url(#SVGID_00000045615432268511524550000013077668996787673220_);fill:none;}
	.st78{fill:#F29E6F;}
	.st79{fill:none;stroke:#EF8E5C;stroke-width:2.9533;stroke-linecap:round;stroke-miterlimit:10;}
	.st80{clip-path:url(#SVGID_00000065761050180784320010000014278028929042682518_);fill:none;}
	.st81{opacity:0.25;fill:none;stroke:#E8EFF4;stroke-width:7.7636;stroke-miterlimit:10;}
	.st82{clip-path:url(#SVGID_00000109716389163755629280000011483398561310314430_);fill:none;}
	.st83{fill:#FFFFFF;stroke:#F8BE98;stroke-width:1.4853;stroke-miterlimit:10;}
	.st84{fill:#E9EFF4;}
</style>
<path class="st0" d="M0,295.5C0,118,156.7,3.9,350,3.9S700,118,700,295.5"/>
<g>
	<g>
		<path class="st4" d="M153.8,204.9H43.4c-2.7,0-4.9-2.2-4.9-4.9V58.4c0-2.7,2.2-4.9,4.9-4.9h110.4c2.7,0,4.9,2.2,4.9,4.9V200
			C158.7,202.7,156.5,204.9,153.8,204.9z"/>
		<path class="st5" d="M158.7,176.4H38.5v-118c0-2.7,2.2-4.9,4.9-4.9h110.4c2.7,0,4.9,2.2,4.9,4.9V176.4z"/>
	</g>
	<g>
		<path class="st6" d="M134.9,156.1L78.3,157c-2.1,0-3.8-1.7-3.8-3.7l0.2-17.5c0-1.1,0-2.3-0.1-3.4l-0.8-17.7c0-1.1-0.1-2.3-0.1-3.4
			L74,91.8c0-1.2,0-2.5-0.1-3.7l-0.7-14c0-0.9,0.7-1.6,1.6-1.6l10.8,0.1c1.5,0,3.1,0,4.6,0l11.8-0.3c1.5-0.1,6.4-0.2,7.9-0.2
			l10.1-0.2c1.7,0,3.5,0,5.2-0.1l11-0.2c0.6,0,1.2,0.5,1.2,1.1l-0.3,15.2c0,0.7,0,1.5,0,2.2l0.9,24l-0.2,21.7c0,0.7,0,1.5,0,2.2
			l0.7,14.3C138.6,154.3,137,156.1,134.9,156.1z"/>
		<path class="st7" d="M133.6,72.8L77,73.7c-2.1,0-3.7,0-3.7,0l0.4-0.5c0,0,0-0.1,0-0.1l-0.5-0.5c0,0,0-0.1,0-0.1l0.5-0.6
			c0,0,0-0.1,0-0.1l-0.4-0.3c-0.1-0.1,1.7-0.1,3.8-0.2l8.5-0.1c1.5,0,3.1,0,4.6-0.1l15.1-0.2c1.5,0,3,0,4.5-0.1l10.1-0.1
			c1.7,0,3.5-0.1,5.2-0.1l8.2-0.1c2.1,0,3.9,0,3.8,0l-0.4,0.4c0,0,0,0,0,0.1l0.6,0.7l-0.5,0.6c0,0,0,0,0,0.1l0.4,0.4
			C137.3,72.7,135.7,72.8,133.6,72.8z"/>
		<path class="st7" d="M133.5,70.9l-56.6,0.9c-2.1,0-3.7,0-3.7,0l0.4-0.5c0,0,0-0.1,0-0.1l-0.5-0.5c0,0,0-0.1,0-0.1l0.5-0.6
			c0,0,0-0.1,0-0.1l-0.4-0.3c-0.1-0.1,1.7-0.1,3.8-0.2l8.5-0.1c1.5,0,3.1,0,4.6-0.1l15.1-0.2c1.5,0,3,0,4.5-0.1l10.1-0.1
			c1.7,0,3.5-0.1,5.2-0.1l8.2-0.1c2.1,0,3.9,0,3.8,0l-0.4,0.4c0,0,0,0,0,0.1l0.6,0.7l-0.5,0.6c0,0,0,0,0,0.1l0.4,0.4
			C137.3,70.8,135.6,70.8,133.5,70.9z"/>
		<path class="st7" d="M133.5,69.5l-56.6,0.9c-2.1,0-3.7,0-3.7,0l0.4-0.5c0,0,0-0.1,0-0.1l-0.5-0.5c0,0,0-0.1,0-0.1l0.5-0.6
			c0,0,0-0.1,0-0.1l-0.4-0.3c-0.1-0.1,1.7-0.1,3.8-0.2l8.5-0.1c1.5,0,3.1,0,4.6-0.1l15.1-0.2c1.5,0,3,0,4.5-0.1l10.1-0.1
			c1.7,0,3.5-0.1,5.2-0.1l8.2-0.1c2.1,0,3.9,0,3.8,0l-0.4,0.4c0,0,0,0,0,0.1l0.6,0.7l-0.5,0.6c0,0,0,0,0,0.1l0.4,0.4
			C137.3,69.4,135.6,69.5,133.5,69.5z"/>
		<g>
			<path class="st8" d="M128.9,131.3c0.3,0,0.5,0.1,0.5,0.4c0.4,2.9-0.8,5.5-3.1,7.1c-3,2.1-7.5,2.2-10.7,0.3
				c-2.5-1.5-3.9-4.1-3.7-7c0-0.3,0.3-0.5,0.5-0.4l4.6,0.5c0.2,0,0.4,0.2,0.4,0.5c0,0.7,0.3,1.3,1,1.7c1.3,0.8,3.5,0.7,4.7-0.1
				c0.6-0.4,0.8-0.9,0.8-1.6c0-0.2,0.1-0.4,0.4-0.5L128.9,131.3z"/>
		</g>
		<g>
			<path class="st8" d="M118.7,145.9c-0.3-0.1-0.4-0.3-0.3-0.6c1-2.8,3.2-4.5,6-4.9c3.6-0.5,7.7,1.5,9.7,4.7
				c1.6,2.5,1.6,5.4,0.1,7.9c-0.1,0.2-0.4,0.3-0.7,0.1l-3.9-2.6c-0.2-0.1-0.3-0.4-0.2-0.6c0.3-0.7,0.3-1.3-0.1-1.9
				c-0.8-1.3-2.7-2.2-4.2-2.1c-0.7,0.1-1.1,0.4-1.4,1.1c-0.1,0.2-0.3,0.3-0.6,0.3L118.7,145.9z"/>
		</g>
		<g>
			<path class="st8" d="M121.6,149.9c0.2,0.1,0.4,0.4,0.3,0.6c-1.1,2.7-3.3,4.4-6.2,4.7c-3.6,0.4-7.7-1.7-9.5-4.9
				c-1.5-2.6-1.4-5.4,0.2-7.9c0.1-0.2,0.4-0.3,0.7-0.1l3.8,2.7c0.2,0.1,0.2,0.4,0.1,0.6c-0.4,0.7-0.3,1.3,0.1,1.9
				c0.8,1.3,2.7,2.3,4.1,2.2c0.7-0.1,1.1-0.4,1.4-1c0.1-0.2,0.3-0.3,0.6-0.2L121.6,149.9z"/>
		</g>
		<g>
			<path class="st8" d="M124.4,143.6c0,0.3-0.3,0.5-0.5,0.4c-2.9-0.5-5-2.3-5.9-5c-1.1-3.5,0-7.8,2.8-10.4c2.2-2,5-2.5,7.8-1.5
				c0.2,0.1,0.4,0.4,0.3,0.6l-1.8,4.3c-0.1,0.2-0.3,0.3-0.6,0.3c-0.7-0.2-1.3-0.1-1.9,0.5c-1.1,1-1.7,3.1-1.2,4.5
				c0.2,0.7,0.6,1,1.3,1.2c0.2,0.1,0.4,0.3,0.4,0.5L124.4,143.6z"/>
		</g>
		<g>
			<path class="st8" d="M87.8,134.8c0.1,0.3-0.1,0.5-0.3,0.6c-2.9,0.6-5.5-0.4-7.3-2.6c-2.3-2.9-2.7-7.3-1.1-10.7
				c1.3-2.6,3.8-4.1,6.7-4.2c0.3,0,0.5,0.2,0.5,0.5l-0.2,4.7c0,0.2-0.2,0.4-0.4,0.4c-0.7,0.1-1.2,0.4-1.6,1.1
				c-0.7,1.3-0.5,3.5,0.4,4.6c0.4,0.5,0.9,0.7,1.6,0.7c0.2,0,0.5,0.1,0.5,0.3L87.8,134.8z"/>
		</g>
		<g>
			<path class="st8" d="M126.6,111.9c-0.1,0.3,0.1,0.5,0.4,0.6c2.9,0.5,5.5-0.5,7.2-2.8c2.2-2.9,2.5-7.4,0.7-10.7
				c-1.4-2.6-3.9-4-6.9-4c-0.3,0-0.5,0.2-0.4,0.5l0.3,4.7c0,0.2,0.2,0.4,0.4,0.4c0.7,0,1.2,0.4,1.6,1c0.7,1.3,0.6,3.5-0.3,4.7
				c-0.4,0.6-0.9,0.8-1.6,0.7c-0.2,0-0.5,0.1-0.5,0.4L126.6,111.9z"/>
		</g>
		<g>
			<path class="st8" d="M127,138.2c-0.1,0.3,0.1,0.5,0.4,0.6c2.9,0.5,5.5-0.5,7.2-2.8c2.2-2.9,2.5-7.4,0.7-10.7
				c-1.4-2.6-3.9-4-6.9-4c-0.3,0-0.5,0.2-0.4,0.5l0.3,4.7c0,0.2,0.2,0.4,0.4,0.4c0.7,0,1.2,0.4,1.6,1c0.7,1.3,0.6,3.5-0.3,4.7
				c-0.4,0.6-0.9,0.8-1.6,0.7c-0.2,0-0.5,0.1-0.5,0.4L127,138.2z"/>
		</g>
		<g>
			<path class="st8" d="M86.8,114.3c0.1,0.3-0.1,0.5-0.3,0.6c-2.9,0.6-5.5-0.4-7.3-2.6c-2.3-2.9-2.7-7.3-1.1-10.7
				c1.3-2.6,3.8-4.1,6.7-4.2c0.3,0,0.5,0.2,0.5,0.5l-0.2,4.7c0,0.2-0.2,0.4-0.4,0.4c-0.7,0.1-1.2,0.4-1.6,1.1
				c-0.7,1.3-0.5,3.5,0.4,4.6c0.4,0.5,0.9,0.7,1.6,0.7c0.2,0,0.5,0.1,0.5,0.3L86.8,114.3z"/>
		</g>
		<g>
			<path class="st8" d="M118.9,147.4c0.1,0.2,0.1,0.5-0.1,0.7c-2.5,1.5-5.4,1.4-7.8-0.1c-3.1-2-4.9-6.1-4.4-9.8
				c0.4-2.9,2.3-5.1,5.1-6.1c0.2-0.1,0.5,0.1,0.6,0.3l1.3,4.5c0.1,0.2-0.1,0.5-0.3,0.6c-0.7,0.3-1,0.8-1.1,1.5
				c-0.2,1.5,0.7,3.5,1.9,4.3c0.6,0.4,1.1,0.4,1.8,0.1c0.2-0.1,0.5,0,0.6,0.2L118.9,147.4z"/>
		</g>
		<g>
			<path class="st8" d="M112.8,127c0.3,0,0.5,0.3,0.4,0.5c-0.5,2.9-2.3,5-5.1,5.9c-3.5,1.1-7.8-0.1-10.3-2.8c-2-2.2-2.5-5-1.5-7.8
				c0.1-0.2,0.4-0.4,0.6-0.3l4.3,1.9c0.2,0.1,0.3,0.3,0.3,0.6c-0.2,0.7-0.1,1.3,0.5,1.9c1,1.1,3.1,1.7,4.5,1.3
				c0.7-0.2,1-0.6,1.2-1.3c0.1-0.2,0.3-0.4,0.5-0.4L112.8,127z"/>
		</g>
		<g>
			<path class="st8" d="M96.9,153.9c-0.1,0.2,0,0.5,0.3,0.6c2.8,0.9,5.5,0.2,7.6-1.8c2.6-2.6,3.5-7,2.2-10.5c-1-2.8-3.3-4.5-6.2-4.9
				c-0.3,0-0.5,0.2-0.5,0.4l-0.3,4.7c0,0.2,0.1,0.4,0.4,0.5c0.7,0.1,1.2,0.5,1.5,1.3c0.5,1.4,0.1,3.5-0.9,4.6
				c-0.5,0.5-1,0.6-1.7,0.5c-0.2-0.1-0.5,0.1-0.6,0.3L96.9,153.9z"/>
		</g>
		<g>
			<path class="st8" d="M76.5,140c-0.3,0-0.4-0.3-0.4-0.5c0.6-2.9,2.5-4.9,5.3-5.7c3.5-1,7.8,0.4,10.2,3.3c1.9,2.3,2.3,5.1,1.1,7.8
				c-0.1,0.2-0.4,0.3-0.6,0.2l-4.2-2.1c-0.2-0.1-0.3-0.3-0.2-0.6c0.2-0.7,0.1-1.3-0.4-1.9c-1-1.2-3-1.8-4.4-1.5
				c-0.7,0.2-1.1,0.6-1.3,1.2c-0.1,0.2-0.3,0.4-0.5,0.3L76.5,140z"/>
		</g>
		<g>
			<path class="st9" d="M99.2,141.6c0.3,0,0.5,0.2,0.5,0.5c0,2.9-1.5,5.3-4.1,6.6c-3.3,1.6-7.8,1.1-10.7-1.2
				c-2.3-1.9-3.3-4.6-2.7-7.5c0.1-0.3,0.3-0.4,0.6-0.3l4.5,1.2c0.2,0.1,0.4,0.3,0.3,0.5c-0.1,0.7,0.1,1.3,0.7,1.8
				c1.2,0.9,3.3,1.2,4.6,0.6c0.6-0.3,0.9-0.8,1-1.5c0-0.2,0.2-0.4,0.4-0.4L99.2,141.6z"/>
		</g>
		<g>
			<path class="st9" d="M77.3,149c-0.3-0.1-0.4-0.4-0.3-0.6c1-2.8,3.2-4.5,6.1-4.9c3.6-0.5,7.7,1.5,9.6,4.7c1.5,2.5,1.5,5.4,0,7.9
				c-0.1,0.2-0.4,0.3-0.7,0.1l-3.9-2.6c-0.2-0.1-0.3-0.4-0.2-0.6c0.3-0.7,0.3-1.3-0.1-1.9c-0.8-1.3-2.7-2.2-4.2-2.1
				c-0.7,0.1-1.1,0.4-1.4,1.1c-0.1,0.2-0.3,0.3-0.6,0.3L77.3,149z"/>
		</g>
		<g>
			<path class="st8" d="M107.9,133.1c0.3,0,0.4,0.3,0.4,0.5c-0.6,2.9-2.5,4.9-5.3,5.7c-3.5,1-7.8-0.4-10.2-3.3
				c-1.9-2.3-2.3-5.1-1.1-7.8c0.1-0.2,0.4-0.3,0.6-0.2l4.2,2.1c0.2,0.1,0.3,0.3,0.2,0.6c-0.2,0.7-0.1,1.3,0.4,1.9
				c1,1.2,3,1.8,4.4,1.5c0.7-0.2,1.1-0.6,1.3-1.2c0.1-0.2,0.3-0.4,0.5-0.3L107.9,133.1z"/>
		</g>
		<g>
			<path class="st8" d="M96.4,97.2c0.3,0.1,0.4,0.3,0.3,0.6c-1,2.8-3.2,4.5-6,4.9C87,103.1,83,101.2,81,98c-1.6-2.5-1.6-5.4-0.1-7.9
				c0.1-0.2,0.4-0.3,0.7-0.1l3.9,2.6c0.2,0.1,0.3,0.4,0.2,0.6c-0.3,0.7-0.3,1.3,0.1,1.9c0.8,1.3,2.7,2.2,4.2,2.1
				c0.7-0.1,1.1-0.4,1.4-1.1c0.1-0.2,0.3-0.3,0.6-0.3L96.4,97.2z"/>
		</g>
		<g>
			<path class="st8" d="M91.5,91.9c-0.1-0.2-0.1-0.5,0.1-0.7c2.5-1.5,5.4-1.4,7.8,0.1c3.1,2,4.9,6.1,4.4,9.8
				c-0.4,2.9-2.3,5.1-5.1,6.1c-0.2,0.1-0.5-0.1-0.6-0.3l-1.3-4.5c-0.1-0.2,0.1-0.5,0.3-0.6c0.7-0.3,1-0.8,1.1-1.5
				c0.2-1.5-0.7-3.5-1.9-4.3c-0.6-0.4-1.1-0.4-1.8-0.1c-0.2,0.1-0.5,0-0.6-0.2L91.5,91.9z"/>
		</g>
		<g>
			<path class="st8" d="M77.3,117.1c-0.3,0-0.5,0.1-0.5,0.4c-0.3,2.9,0.9,5.5,3.4,7c3.1,2,7.6,2,10.7-0.1c2.5-1.6,3.7-4.2,3.4-7.1
				c0-0.3-0.3-0.4-0.5-0.4l-4.6,0.7c-0.2,0-0.4,0.2-0.4,0.5c0,0.7-0.3,1.3-0.9,1.7c-1.3,0.8-3.4,0.8-4.7,0.1
				c-0.6-0.4-0.8-0.9-0.8-1.6c0-0.2-0.2-0.4-0.4-0.5L77.3,117.1z"/>
		</g>
		<g>
			<path class="st8" d="M111.5,84.5c0.2-0.1,0.4-0.4,0.3-0.6c-1.1-2.7-3.3-4.4-6.2-4.7c-3.6-0.4-7.6,1.7-9.5,5
				c-1.5,2.6-1.4,5.4,0.2,7.9c0.1,0.2,0.4,0.3,0.7,0.1l3.8-2.7c0.2-0.1,0.2-0.4,0.1-0.6c-0.4-0.7-0.3-1.2,0.1-1.9
				c0.8-1.3,2.7-2.3,4.1-2.2c0.7,0.1,1.1,0.4,1.4,1c0.1,0.2,0.3,0.3,0.6,0.2L111.5,84.5z"/>
		</g>
		<g>
			<path class="st8" d="M106.7,89.9c-0.1,0.2-0.1,0.5,0.2,0.6c2.6,1.4,5.4,1.3,7.8-0.4c3-2.1,4.7-6.2,4.1-9.9
				c-0.5-2.9-2.4-5.1-5.2-5.9c-0.3-0.1-0.5,0.1-0.6,0.3l-1.2,4.5c-0.1,0.2,0.1,0.5,0.3,0.5c0.7,0.3,1.1,0.7,1.2,1.5
				c0.3,1.5-0.6,3.5-1.7,4.3c-0.6,0.4-1.1,0.4-1.8,0.2c-0.2-0.1-0.5,0-0.6,0.2L106.7,89.9z"/>
		</g>
		<g>
			<path class="st8" d="M93.7,75.3c0.2-0.1,0.5,0,0.6,0.3c1,2.8,0.4,5.5-1.6,7.6c-2.5,2.7-6.9,3.7-10.4,2.5c-2.8-1-4.6-3.2-5-6.1
				c0-0.3,0.2-0.5,0.4-0.5l4.7-0.4c0.2,0,0.4,0.1,0.5,0.4c0.2,0.7,0.6,1.2,1.3,1.4c1.4,0.5,3.5,0,4.5-1c0.5-0.5,0.6-1,0.4-1.7
				c-0.1-0.2,0.1-0.5,0.3-0.6L93.7,75.3z"/>
		</g>
		<g>
			<path class="st8" d="M131.7,84.9c0.1-0.2,0.4-0.3,0.6-0.2c2.5,1.5,3.9,4,3.7,6.9c-0.2,3.7-2.9,7.3-6.4,8.6
				c-2.8,1.1-5.6,0.5-7.8-1.4c-0.2-0.2-0.2-0.5,0-0.7l3.3-3.3c0.2-0.2,0.4-0.2,0.6,0c0.6,0.5,1.2,0.5,1.9,0.3
				c1.4-0.5,2.7-2.3,2.8-3.7c0-0.7-0.2-1.2-0.8-1.6c-0.2-0.1-0.3-0.4-0.2-0.6L131.7,84.9z"/>
		</g>
		<g>
			<path class="st8" d="M106.3,79.2c0.1-0.2,0.4-0.3,0.6-0.2c2.5,1.5,3.9,4,3.7,6.9c-0.2,3.7-2.9,7.3-6.4,8.6
				c-2.8,1.1-5.6,0.5-7.8-1.4c-0.2-0.2-0.2-0.5,0-0.7l3.3-3.3c0.2-0.2,0.4-0.2,0.6,0c0.6,0.5,1.2,0.5,1.9,0.3
				c1.4-0.5,2.7-2.3,2.8-3.7c0-0.7-0.2-1.2-0.8-1.6c-0.2-0.1-0.3-0.4-0.2-0.6L106.3,79.2z"/>
		</g>
		<g>
			<path class="st8" d="M129.3,89.5c0.2,0.2,0.1,0.5-0.1,0.7c-2.4,1.7-5.2,1.9-7.8,0.6c-3.3-1.7-5.5-5.6-5.3-9.3
				c0.2-3,1.8-5.3,4.5-6.5c0.2-0.1,0.5,0,0.6,0.3l1.7,4.4c0.1,0.2,0,0.5-0.2,0.6c-0.7,0.4-1,0.9-1,1.6c-0.1,1.5,1,3.4,2.3,4.1
				c0.6,0.3,1.2,0.3,1.8-0.1c0.2-0.1,0.5-0.1,0.6,0.1L129.3,89.5z"/>
		</g>
		<g>
			<path class="st8" d="M116.4,83.5c0.1-0.2,0.4-0.3,0.6-0.2c2.5,1.5,3.9,4,3.7,6.9c-0.2,3.7-2.9,7.3-6.4,8.6
				c-2.8,1.1-5.6,0.5-7.8-1.4c-0.2-0.2-0.2-0.5,0-0.7l3.3-3.3c0.2-0.2,0.4-0.2,0.6,0c0.6,0.5,1.2,0.5,1.9,0.3
				c1.4-0.5,2.7-2.3,2.8-3.7c0-0.7-0.2-1.2-0.8-1.6c-0.2-0.1-0.3-0.4-0.2-0.6L116.4,83.5z"/>
		</g>
		<g>
			<path class="st8" d="M119.4,128.2c-0.3,0.1-0.5-0.1-0.6-0.3c-0.6-2.9,0.2-5.5,2.5-7.4c2.8-2.4,7.3-2.9,10.6-1.3
				c2.7,1.3,4.2,3.7,4.3,6.7c0,0.3-0.2,0.5-0.5,0.5l-4.7-0.1c-0.2,0-0.4-0.2-0.5-0.4c-0.1-0.7-0.4-1.2-1.1-1.6
				c-1.4-0.7-3.5-0.4-4.6,0.5c-0.5,0.4-0.7,1-0.6,1.7c0,0.2-0.1,0.5-0.3,0.5L119.4,128.2z"/>
		</g>
		<g>
			<path class="st8" d="M78.3,100.6c-0.3,0.1-0.5-0.1-0.6-0.3c-0.6-2.9,0.2-5.5,2.5-7.4c2.8-2.4,7.3-2.9,10.6-1.3
				c2.7,1.3,4.2,3.7,4.3,6.7c0,0.3-0.2,0.5-0.5,0.5L90,98.6c-0.2,0-0.4-0.2-0.5-0.4c-0.1-0.7-0.4-1.2-1.1-1.6
				c-1.4-0.7-3.5-0.4-4.6,0.5c-0.5,0.4-0.7,1-0.6,1.7c0,0.2-0.1,0.5-0.3,0.5L78.3,100.6z"/>
		</g>
		<g>
			<path class="st8" d="M118.8,87.7c-0.3,0.1-0.5-0.1-0.6-0.3c-0.6-2.9,0.2-5.5,2.5-7.4c2.8-2.4,7.3-2.9,10.6-1.3
				c2.7,1.3,4.2,3.7,4.3,6.7c0,0.3-0.2,0.5-0.5,0.5l-4.7-0.1c-0.2,0-0.4-0.2-0.5-0.4c-0.1-0.7-0.4-1.2-1.1-1.6
				c-1.4-0.7-3.5-0.4-4.6,0.5c-0.5,0.4-0.7,1-0.6,1.7c0,0.2-0.1,0.5-0.3,0.5L118.8,87.7z"/>
		</g>
		<g>
			<path class="st1" d="M119,97c-0.2-0.2-0.2-0.5,0-0.7c2.1-2,4.8-2.7,7.6-1.8c3.5,1.2,6.3,4.7,6.6,8.4c0.3,2.9-0.9,5.5-3.4,7.1
				c-0.2,0.1-0.5,0.1-0.7-0.2l-2.4-4c-0.1-0.2-0.1-0.5,0.1-0.6c0.6-0.5,0.8-1,0.7-1.8c-0.2-1.5-1.5-3.2-2.9-3.7
				c-0.7-0.2-1.2-0.1-1.7,0.3c-0.2,0.2-0.4,0.2-0.6,0L119,97z"/>
		</g>
		<g>
			<path class="st10" d="M79,153.8c-0.3,0-0.5-0.1-0.5-0.4c-0.4-2.9,0.8-5.5,3.1-7.1c3-2.1,7.5-2.2,10.7-0.3c2.5,1.5,3.9,4.1,3.7,7
				c0,0.3-0.3,0.5-0.5,0.4l-4.6-0.5c-0.2,0-0.4-0.2-0.4-0.5c0-0.7-0.3-1.3-1-1.7c-1.3-0.8-3.5-0.7-4.7,0.1c-0.6,0.4-0.8,0.9-0.8,1.6
				c0,0.2-0.1,0.4-0.4,0.5L79,153.8z"/>
		</g>
		<g>
			<path class="st1" d="M115.4,141.7c-0.3,0-0.5-0.1-0.5-0.4c-0.4-2.9,0.8-5.5,3.1-7.1c3-2.1,7.5-2.2,10.7-0.3
				c2.5,1.5,3.9,4.1,3.7,7c0,0.3-0.3,0.5-0.5,0.4l-4.6-0.5c-0.2,0-0.4-0.2-0.4-0.5c0-0.7-0.3-1.3-1-1.7c-1.3-0.8-3.5-0.7-4.7,0.1
				c-0.6,0.4-0.8,0.9-0.8,1.6c0,0.2-0.1,0.4-0.4,0.5L115.4,141.7z"/>
		</g>
		<g>
			<path class="st1" d="M92.6,137.6c-0.1-0.2-0.1-0.5,0.1-0.7c2.5-1.5,5.4-1.4,7.8,0.1c3.1,2,4.9,6.1,4.4,9.8
				c-0.4,2.9-2.3,5.1-5.1,6.1c-0.2,0.1-0.5-0.1-0.6-0.3l-1.3-4.5c-0.1-0.2,0.1-0.5,0.3-0.6c0.7-0.3,1-0.8,1.1-1.5
				c0.2-1.5-0.7-3.5-1.9-4.3c-0.6-0.4-1.1-0.4-1.8-0.1c-0.2,0.1-0.5,0-0.6-0.2L92.6,137.6z"/>
		</g>
		<g>
			<path class="st1" d="M124.4,108.8c-0.1-0.2-0.1-0.5,0.1-0.7c2.5-1.5,5.4-1.4,7.8,0.1c3.1,2,4.9,6.1,4.4,9.8
				c-0.4,2.9-2.3,5.1-5.1,6.1c-0.2,0.1-0.5-0.1-0.6-0.3l-1.3-4.5c-0.1-0.2,0.1-0.5,0.3-0.6c0.7-0.3,1-0.8,1.1-1.5
				c0.2-1.5-0.7-3.5-1.9-4.3c-0.6-0.4-1.1-0.4-1.8-0.1c-0.2,0.1-0.5,0-0.6-0.2L124.4,108.8z"/>
		</g>
		<g>
			<path class="st1" d="M109.9,147.8c-0.3-0.1-0.4-0.3-0.3-0.6c1-2.8,3.2-4.5,6-4.9c3.6-0.5,7.7,1.5,9.7,4.7
				c1.6,2.5,1.6,5.4,0.1,7.9c-0.1,0.2-0.4,0.3-0.7,0.1l-3.9-2.6c-0.2-0.1-0.3-0.4-0.2-0.6c0.3-0.7,0.3-1.3-0.1-1.9
				c-0.8-1.3-2.7-2.2-4.2-2.1c-0.7,0.1-1.1,0.4-1.4,1.1c-0.1,0.2-0.3,0.3-0.6,0.3L109.9,147.8z"/>
		</g>
		<g>
			<path class="st1" d="M78,80.9c-0.3-0.1-0.4-0.3-0.3-0.6c1-2.8,3.2-4.5,6-4.9c3.6-0.5,7.7,1.5,9.7,4.7c1.6,2.5,1.6,5.4,0.1,7.9
				c-0.1,0.2-0.4,0.3-0.7,0.1l-3.9-2.6c-0.2-0.1-0.3-0.4-0.2-0.6c0.3-0.7,0.3-1.3-0.1-1.9c-0.8-1.3-2.7-2.2-4.2-2.1
				c-0.7,0.1-1.1,0.4-1.4,1.1c-0.1,0.2-0.3,0.3-0.6,0.3L78,80.9z"/>
		</g>
		<g>
			<path class="st1" d="M100.7,113c0.1-0.2,0.4-0.3,0.7-0.1c2.4,1.7,3.6,4.3,3.2,7.1c-0.5,3.6-3.4,7-7,8.1c-2.8,0.9-5.6,0.1-7.7-2
				c-0.2-0.2-0.2-0.5,0-0.7l3.5-3.1c0.2-0.2,0.4-0.2,0.6,0c0.6,0.5,1.1,0.6,1.9,0.4c1.4-0.4,2.9-2.1,3.1-3.5
				c0.1-0.7-0.1-1.2-0.7-1.6c-0.2-0.1-0.2-0.4-0.1-0.6L100.7,113z"/>
		</g>
		<g>
			<path class="st1" d="M79.9,134.5c-0.3,0-0.5-0.1-0.5-0.4c-0.4-2.9,0.8-5.5,3.1-7.1c3-2.1,7.5-2.2,10.7-0.3c2.5,1.5,3.9,4.1,3.7,7
				c0,0.3-0.3,0.5-0.5,0.4l-4.6-0.5c-0.2,0-0.4-0.2-0.4-0.5c0-0.7-0.3-1.3-1-1.7c-1.3-0.8-3.5-0.7-4.7,0.1c-0.6,0.4-0.8,0.9-0.8,1.6
				c0,0.2-0.1,0.4-0.4,0.5L79.9,134.5z"/>
		</g>
		<g>
			<path class="st1" d="M93.2,122.2c-0.1-0.2-0.1-0.5,0.1-0.7c2.5-1.5,5.4-1.4,7.8,0.1c3.1,2,4.9,6.1,4.4,9.8
				c-0.4,2.9-2.3,5.1-5.1,6.1c-0.2,0.1-0.5-0.1-0.6-0.3l-1.3-4.5c-0.1-0.2,0.1-0.5,0.3-0.6c0.7-0.3,1-0.8,1.1-1.5
				c0.2-1.5-0.7-3.5-1.9-4.3c-0.6-0.4-1.1-0.4-1.8-0.1c-0.2,0.1-0.5,0-0.6-0.2L93.2,122.2z"/>
		</g>
		<g>
			<path class="st1" d="M132,109.7c0.3,0,0.5,0.1,0.5,0.4c0.4,2.9-0.8,5.5-3.1,7.1c-3,2.1-7.5,2.2-10.7,0.3c-2.5-1.5-3.9-4.1-3.7-7
				c0-0.3,0.3-0.5,0.5-0.4l4.6,0.5c0.2,0,0.4,0.2,0.4,0.5c0,0.7,0.3,1.3,1,1.7c1.3,0.8,3.5,0.7,4.7-0.1c0.6-0.4,0.8-0.9,0.8-1.6
				c0-0.2,0.1-0.4,0.4-0.5L132,109.7z"/>
		</g>
		<g>
			<path class="st1" d="M135.3,102.6c0.3,0,0.5-0.1,0.5-0.4c0.3-2.9-0.9-5.5-3.4-7c-3.1-2-7.6-2-10.7,0.1c-2.5,1.6-3.7,4.2-3.4,7.1
				c0,0.3,0.3,0.4,0.5,0.4l4.6-0.7c0.2,0,0.4-0.2,0.4-0.5c0-0.7,0.3-1.3,0.9-1.7c1.3-0.8,3.4-0.8,4.7-0.1c0.6,0.4,0.8,0.9,0.8,1.6
				c0,0.2,0.2,0.4,0.4,0.5L135.3,102.6z"/>
		</g>
		<g>
			<path class="st1" d="M120.4,130.8c-0.3-0.1-0.4-0.3-0.3-0.6c1-2.8,3.2-4.5,6-4.9c3.6-0.5,7.7,1.5,9.7,4.7
				c1.6,2.5,1.6,5.4,0.1,7.9c-0.1,0.2-0.4,0.3-0.7,0.1l-3.9-2.6c-0.2-0.1-0.3-0.4-0.2-0.6c0.3-0.7,0.3-1.3-0.1-1.9
				c-0.8-1.3-2.7-2.2-4.2-2.1c-0.7,0.1-1.1,0.4-1.4,1.1c-0.1,0.2-0.3,0.3-0.6,0.3L120.4,130.8z"/>
		</g>
		<g>
			<path class="st1" d="M120.3,130.2c0.1,0.2,0.1,0.5-0.1,0.7c-2.5,1.5-5.4,1.4-7.8-0.1c-3.1-2-4.9-6.1-4.4-9.8
				c0.4-2.9,2.3-5.1,5.1-6.1c0.2-0.1,0.5,0.1,0.6,0.3l1.3,4.5c0.1,0.2-0.1,0.5-0.3,0.6c-0.7,0.3-1,0.8-1.1,1.5
				c-0.2,1.5,0.7,3.5,1.9,4.3c0.6,0.4,1.1,0.4,1.8,0.1c0.2-0.1,0.5,0,0.6,0.2L120.3,130.2z"/>
		</g>
		<g>
			<path class="st1" d="M79.6,118.4c-0.3,0-0.4-0.3-0.4-0.5c0.6-2.9,2.5-4.9,5.3-5.7c3.5-1,7.8,0.4,10.2,3.3
				c1.9,2.3,2.3,5.1,1.1,7.8c-0.1,0.2-0.4,0.3-0.6,0.2l-4.2-2.1c-0.2-0.1-0.3-0.3-0.2-0.6c0.2-0.7,0.1-1.3-0.4-1.9
				c-1-1.2-3-1.8-4.4-1.5c-0.7,0.2-1.1,0.6-1.3,1.2c-0.1,0.2-0.3,0.4-0.5,0.3L79.6,118.4z"/>
		</g>
		<g>
			<path class="st10" d="M111.1,111.5c0.3,0,0.4,0.3,0.4,0.5c-0.6,2.9-2.5,4.9-5.3,5.7c-3.5,1-7.8-0.4-10.2-3.3
				c-1.9-2.3-2.3-5.1-1.1-7.8c0.1-0.2,0.4-0.3,0.6-0.2l4.2,2.1c0.2,0.1,0.3,0.3,0.2,0.6c-0.2,0.7-0.1,1.3,0.4,1.9
				c1,1.2,3,1.8,4.4,1.5c0.7-0.2,1.1-0.6,1.3-1.2c0.1-0.2,0.3-0.4,0.5-0.3L111.1,111.5z"/>
		</g>
		<g>
			<path class="st1" d="M129.6,89.9c0.3,0,0.5,0.1,0.5,0.4c0.4,2.9-0.8,5.5-3.1,7.1c-3,2.1-7.5,2.2-10.7,0.3c-2.5-1.5-3.9-4.1-3.7-7
				c0-0.3,0.3-0.5,0.5-0.4l4.6,0.5c0.2,0,0.4,0.2,0.4,0.5c0,0.7,0.3,1.3,1,1.7c1.3,0.8,3.5,0.7,4.7-0.1c0.6-0.4,0.8-0.9,0.8-1.6
				c0-0.2,0.1-0.4,0.4-0.5L129.6,89.9z"/>
		</g>
		<g>
			<path class="st1" d="M116.1,106.1c0.1,0.2,0.1,0.5-0.1,0.7c-2.5,1.5-5.4,1.4-7.8-0.1c-3.1-2-4.9-6.1-4.4-9.8
				c0.4-2.9,2.3-5.1,5.1-6.1c0.2-0.1,0.5,0.1,0.6,0.3l1.3,4.5c0.1,0.2-0.1,0.5-0.3,0.6c-0.7,0.3-1,0.8-1.1,1.5
				c-0.2,1.5,0.7,3.5,1.9,4.3c0.6,0.4,1.1,0.4,1.8,0.1c0.2-0.1,0.5,0,0.6,0.2L116.1,106.1z"/>
		</g>
		<g>
			<path class="st1" d="M79.7,112.4c-0.3,0-0.5-0.1-0.5-0.4c-0.4-2.9,0.8-5.5,3.1-7.1c3-2.1,7.5-2.2,10.7-0.3c2.5,1.5,3.9,4.1,3.7,7
				c0,0.3-0.3,0.5-0.5,0.4l-4.6-0.5c-0.2,0-0.4-0.2-0.4-0.5c0-0.7-0.3-1.3-1-1.7c-1.3-0.8-3.5-0.7-4.7,0.1c-0.6,0.4-0.8,0.9-0.8,1.6
				c0,0.2-0.1,0.4-0.4,0.5L79.7,112.4z"/>
		</g>
		<g>
			<path class="st1" d="M132.1,103.8c0.3,0,0.4,0.3,0.4,0.5c-0.6,2.9-2.5,4.9-5.3,5.7c-3.5,1-7.8-0.4-10.2-3.3
				c-1.9-2.3-2.3-5.1-1.1-7.8c0.1-0.2,0.4-0.3,0.6-0.2l4.2,2.1c0.2,0.1,0.3,0.3,0.2,0.6c-0.2,0.7-0.1,1.3,0.4,1.9
				c1,1.2,3,1.8,4.4,1.5c0.7-0.2,1.1-0.6,1.3-1.2c0.1-0.2,0.3-0.4,0.5-0.3L132.1,103.8z"/>
		</g>
		<g>
			<path class="st1" d="M131.9,136.2c0.1-0.3,0.3-0.4,0.6-0.3c2.8,1,4.6,3.1,5,6c0.5,3.6-1.4,7.7-4.6,9.7c-2.5,1.6-5.4,1.6-7.9,0.1
				c-0.2-0.1-0.3-0.4-0.1-0.7l2.6-3.9c0.1-0.2,0.4-0.3,0.6-0.2c0.7,0.3,1.3,0.3,1.9-0.1c1.3-0.8,2.2-2.8,2-4.2
				c-0.1-0.7-0.4-1.1-1.1-1.4c-0.2-0.1-0.3-0.3-0.3-0.6L131.9,136.2z"/>
		</g>
		<g>
			<path class="st1" d="M115,133.9c0.1-0.2,0-0.5-0.3-0.6c-2.7-1-5.5-0.5-7.7,1.4c-2.7,2.5-3.9,6.8-2.8,10.4c0.9,2.8,3.1,4.7,6,5.2
				c0.3,0,0.5-0.1,0.5-0.4l0.6-4.6c0-0.2-0.1-0.4-0.4-0.5c-0.7-0.2-1.1-0.6-1.4-1.3c-0.5-1.4,0.1-3.5,1.2-4.5c0.5-0.5,1-0.6,1.7-0.4
				c0.2,0.1,0.5,0,0.6-0.3L115,133.9z"/>
		</g>
		<g>
			<path class="st1" d="M116.6,84.7c-0.3,0.1-0.4,0.3-0.4,0.6c0.7,2.8,2.7,4.8,5.5,5.5c3.6,0.8,7.8-0.7,10.1-3.6
				c1.8-2.3,2.1-5.2,0.9-7.9c-0.1-0.2-0.4-0.3-0.6-0.2l-4.1,2.2c-0.2,0.1-0.3,0.4-0.2,0.6c0.3,0.7,0.2,1.3-0.3,1.9
				c-0.9,1.2-3,1.9-4.4,1.6c-0.7-0.2-1.1-0.5-1.3-1.2c-0.1-0.2-0.3-0.4-0.5-0.3L116.6,84.7z"/>
		</g>
		<g>
			<path class="st1" d="M135.3,77.7c0.2-0.1,0.3-0.4,0.1-0.7c-1.7-2.4-4.3-3.5-7.1-3.1c-3.6,0.5-7,3.5-8.1,7c-0.8,2.8-0.1,5.6,2,7.7
				c0.2,0.2,0.5,0.2,0.7,0l3.1-3.5c0.2-0.2,0.1-0.4,0-0.6c-0.5-0.6-0.6-1.1-0.4-1.9c0.4-1.4,2.1-2.9,3.5-3.1
				c0.7-0.1,1.2,0.1,1.6,0.7c0.1,0.2,0.4,0.2,0.6,0.1L135.3,77.7z"/>
		</g>
		<g>
			<path class="st1" d="M76.6,138.7c-0.2,0.1-0.4,0.4-0.3,0.6c1.1,2.7,3.3,4.5,6.1,4.8c3.6,0.4,7.7-1.6,9.6-4.8
				c1.5-2.5,1.5-5.4-0.1-7.9c-0.1-0.2-0.4-0.3-0.7-0.1l-3.8,2.7c-0.2,0.1-0.3,0.4-0.1,0.6c0.3,0.7,0.3,1.3-0.1,1.9
				c-0.8,1.3-2.7,2.3-4.2,2.1c-0.7-0.1-1.1-0.4-1.4-1c-0.1-0.2-0.3-0.3-0.6-0.3L76.6,138.7z"/>
		</g>
		<g>
			<path class="st1" d="M119.1,92.7c0.1,0.2,0.4,0.3,0.7,0.1c2.3-1.8,3.4-4.4,2.9-7.2c-0.6-3.6-3.7-6.9-7.3-7.9
				c-2.9-0.8-5.6,0.1-7.6,2.2c-0.2,0.2-0.1,0.5,0.1,0.7l3.6,3c0.2,0.1,0.4,0.1,0.6,0c0.5-0.5,1.1-0.6,1.9-0.4c1.5,0.4,2.9,2,3.2,3.4
				c0.1,0.7-0.1,1.2-0.6,1.7c-0.2,0.2-0.2,0.4-0.1,0.6L119.1,92.7z"/>
		</g>
		<g>
			<path class="st10" d="M96.5,111.1c0,0.3-0.2,0.5-0.5,0.5c-2.9-0.2-5.2-1.8-6.4-4.4c-1.5-3.4-0.7-7.8,1.8-10.6
				c2-2.2,4.7-3,7.6-2.3c0.3,0.1,0.4,0.3,0.3,0.6l-1.4,4.5c-0.1,0.2-0.3,0.4-0.5,0.3c-0.7-0.1-1.3,0.1-1.8,0.6
				c-1,1.1-1.4,3.3-0.8,4.6c0.3,0.6,0.7,1,1.4,1.1c0.2,0,0.4,0.2,0.4,0.5L96.5,111.1z"/>
		</g>
		<g>
			<path class="st1" d="M84.6,91.8c0.1-0.2,0.4-0.3,0.6-0.2c2.5,1.5,3.9,4,3.7,6.9c-0.2,3.7-2.9,7.3-6.4,8.6
				c-2.8,1.1-5.6,0.5-7.8-1.4c-0.2-0.2-0.2-0.5,0-0.7l3.3-3.3c0.2-0.2,0.4-0.2,0.6,0c0.6,0.5,1.2,0.5,1.9,0.3
				c1.4-0.5,2.7-2.3,2.8-3.7c0-0.7-0.2-1.2-0.8-1.6c-0.2-0.1-0.3-0.4-0.2-0.6L84.6,91.8z"/>
		</g>
		<g>
			<path class="st1" d="M78.6,95.6c-0.2,0.1-0.5,0-0.6-0.3c-1-2.8-0.4-5.5,1.6-7.6c2.5-2.7,6.9-3.7,10.4-2.5c2.8,1,4.6,3.2,5,6.1
				c0,0.3-0.2,0.5-0.4,0.5l-4.7,0.4c-0.2,0-0.4-0.1-0.5-0.4c-0.2-0.7-0.6-1.2-1.3-1.4c-1.4-0.5-3.5,0-4.5,1c-0.5,0.5-0.6,1-0.4,1.7
				c0.1,0.2-0.1,0.5-0.3,0.6L78.6,95.6z"/>
		</g>
		<g>
			<path class="st1" d="M95,87.4c-0.2,0.2-0.5,0.1-0.7-0.1c-1.8-2.3-2.1-5.1-0.8-7.7c1.6-3.3,5.4-5.6,9.2-5.6c3,0.1,5.4,1.6,6.7,4.3
				c0.1,0.2,0,0.5-0.2,0.6l-4.3,1.8c-0.2,0.1-0.5,0-0.6-0.2c-0.4-0.6-0.9-0.9-1.7-1c-1.5,0-3.4,1.1-4,2.4c-0.3,0.6-0.3,1.2,0.1,1.8
				c0.1,0.2,0.1,0.5-0.1,0.6L95,87.4z"/>
		</g>
		<g>
			<path class="st1" d="M117.7,81.4c0.2-0.1,0.5,0,0.6,0.3c1,2.8,0.4,5.5-1.6,7.6c-2.5,2.7-6.9,3.7-10.4,2.5c-2.8-1-4.6-3.2-5-6.1
				c0-0.3,0.2-0.5,0.4-0.5l4.7-0.4c0.2,0,0.4,0.1,0.5,0.4c0.2,0.7,0.6,1.2,1.3,1.4c1.4,0.5,3.5,0,4.5-1c0.5-0.5,0.6-1,0.4-1.7
				c-0.1-0.2,0.1-0.5,0.3-0.6L117.7,81.4z"/>
		</g>
		<g>
			<path class="st10" d="M100.7,110.6c-0.3,0-0.4-0.3-0.4-0.5c0.6-2.9,2.5-4.9,5.3-5.7c3.5-1,7.8,0.4,10.2,3.3
				c1.9,2.3,2.3,5.1,1.1,7.8c-0.1,0.2-0.4,0.3-0.6,0.2l-4.2-2.1c-0.2-0.1-0.3-0.3-0.2-0.6c0.2-0.7,0.1-1.3-0.4-1.9
				c-1-1.2-3-1.8-4.4-1.5c-0.7,0.2-1.1,0.6-1.3,1.2c-0.1,0.2-0.3,0.4-0.5,0.3L100.7,110.6z"/>
		</g>
		
			<rect x="84.2" y="93.3" transform="matrix(0.9999 -1.560244e-02 1.560244e-02 0.9999 -1.6869 1.6692)" class="st11" width="43.9" height="31.2"/>
		<g>
			<path class="st3" d="M94.9,106.8c0,0.9-0.3,1.6-0.8,2.1c-0.6,0.5-1.4,0.8-2.5,0.8l-0.8,0l0,3.1l-1.8,0l-0.1-8.6l2.7,0
				c1,0,1.8,0.2,2.4,0.6C94.6,105.2,94.9,105.9,94.9,106.8z M90.8,108.2l0.6,0c0.6,0,1-0.1,1.3-0.4s0.4-0.5,0.4-1
				c0-0.4-0.1-0.7-0.4-0.9c-0.2-0.2-0.6-0.3-1.1-0.3l-0.8,0L90.8,108.2z"/>
			<path class="st3" d="M101.6,112.6l-0.7-2l-3.1,0l-0.6,2.1l-2,0l2.9-8.7l2.2,0l3.2,8.6L101.6,112.6z M100.5,109
				c-0.6-1.8-0.9-2.9-1-3.1c-0.1-0.2-0.1-0.4-0.2-0.6c-0.1,0.5-0.5,1.7-1.1,3.7L100.5,109z"/>
			<path class="st3" d="M109.5,110.1c0,0.8-0.3,1.4-0.8,1.8c-0.6,0.5-1.3,0.7-2.3,0.7c-0.9,0-1.7-0.1-2.4-0.5l0-1.7
				c0.6,0.2,1.1,0.4,1.5,0.5c0.4,0.1,0.8,0.1,1.1,0.1c0.4,0,0.7-0.1,0.9-0.2c0.2-0.2,0.3-0.4,0.3-0.7c0-0.2-0.1-0.3-0.1-0.4
				c-0.1-0.1-0.2-0.3-0.4-0.4c-0.2-0.1-0.6-0.3-1.1-0.6c-0.5-0.2-0.9-0.5-1.2-0.7c-0.3-0.2-0.5-0.5-0.6-0.8s-0.2-0.7-0.3-1.1
				c0-0.8,0.2-1.4,0.7-1.8c0.5-0.4,1.2-0.7,2.1-0.7c0.4,0,0.9,0,1.3,0.1c0.4,0.1,0.8,0.2,1.3,0.4l-0.6,1.4c-0.5-0.2-0.8-0.3-1.1-0.4
				c-0.3-0.1-0.6-0.1-0.9-0.1c-0.3,0-0.6,0.1-0.8,0.3c-0.2,0.2-0.3,0.4-0.3,0.6c0,0.2,0,0.3,0.1,0.4c0.1,0.1,0.2,0.2,0.4,0.3
				c0.2,0.1,0.6,0.3,1.2,0.6c0.8,0.4,1.4,0.7,1.7,1.1C109.3,109,109.5,109.5,109.5,110.1z"/>
			<path class="st3" d="M114.2,112.4l-1.8,0l-0.1-7.1l-2.3,0l0-1.5l6.5-0.1l0,1.5l-2.3,0L114.2,112.4z"/>
			<path class="st3" d="M122.8,112.2l-0.7-2l-3.1,0l-0.6,2.1l-2,0l2.9-8.7l2.2,0l3.2,8.6L122.8,112.2z M121.7,108.7
				c-0.6-1.8-0.9-2.9-1-3.1s-0.1-0.4-0.2-0.6c-0.1,0.5-0.5,1.7-1.1,3.7L121.7,108.7z"/>
		</g>
	</g>
	<g>
		<path class="st12" d="M83.5,162.2c0,2.2-27.6,2-27.6-0.2l0.3-41.7c0-1.8,27.6-1.6,27.6,0.2L83.5,162.2z"/>
		<path class="st13" d="M83.6,160.2c0,2.4-27.6,2.2-27.6-0.2l0.3-38.1c0-1.4,27.6-1.2,27.6,0.2L83.6,160.2z"/>
		
			<rect x="58.4" y="131.4" transform="matrix(1 7.938200e-03 -7.938200e-03 1 1.1247 -0.5507)" class="st14" width="23" height="20.1"/>
		<g>
			<path class="st3" d="M61.1,136.3l1.3,0c0.6,0,1,0.1,1.3,0.3c0.3,0.2,0.4,0.4,0.4,0.8c0,0.2-0.1,0.4-0.2,0.6s-0.3,0.2-0.5,0.3l0,0
				c0.3,0.1,0.4,0.2,0.6,0.3c0.1,0.2,0.2,0.4,0.2,0.6c0,0.4-0.1,0.7-0.4,0.9c-0.3,0.2-0.6,0.3-1.1,0.3l-1.5,0L61.1,136.3z M62,137.9
				l0.5,0c0.2,0,0.4,0,0.5-0.1c0.1-0.1,0.2-0.2,0.2-0.4c0-0.2-0.1-0.3-0.2-0.3c-0.1-0.1-0.3-0.1-0.5-0.1l-0.5,0L62,137.9z M62,138.6
				l0,1.1l0.6,0c0.2,0,0.4,0,0.5-0.1c0.1-0.1,0.2-0.2,0.2-0.4c0-0.3-0.2-0.5-0.7-0.5L62,138.6z"/>
			<path class="st3" d="M67.3,140.4l-0.3-1l-1.5,0l-0.3,1l-0.9,0l1.5-4.1l1.1,0l1.4,4.1L67.3,140.4z M66.8,138.7
				c-0.3-0.9-0.4-1.4-0.5-1.5c0-0.1-0.1-0.2-0.1-0.3c-0.1,0.2-0.2,0.8-0.5,1.8L66.8,138.7z"/>
			<path class="st3" d="M71.9,140.5l-1,0l-1.1-1.7l-0.4,0.3l0,1.5l-0.9,0l0-4.1l0.9,0l0,1.9l0.3-0.5l1.1-1.4l1,0l-1.4,1.8
				L71.9,140.5z"/>
			<path class="st3" d="M74.7,140.5l-2.4,0l0-4.1l2.4,0l0,0.7l-1.5,0l0,0.9l1.4,0l0,0.7l-1.4,0l0,1.1l1.5,0L74.7,140.5z"/>
			<path class="st3" d="M78.7,138.4c0,0.7-0.2,1.2-0.6,1.5c-0.4,0.4-0.9,0.5-1.7,0.5l-1.2,0l0-4.1l1.3,0c0.7,0,1.2,0.2,1.6,0.5
				C78.6,137.3,78.7,137.8,78.7,138.4z M77.8,138.5c0-0.9-0.4-1.3-1.2-1.3l-0.5,0l0,2.7l0.4,0C77.4,139.8,77.8,139.4,77.8,138.5z"/>
			<path class="st3" d="M61.2,142.2l1.3,0c0.6,0,1,0.1,1.3,0.3c0.3,0.2,0.4,0.4,0.4,0.8c0,0.2-0.1,0.4-0.2,0.6
				c-0.1,0.2-0.3,0.2-0.5,0.3l0,0c0.3,0.1,0.4,0.2,0.6,0.3c0.1,0.2,0.2,0.4,0.2,0.6c0,0.4-0.1,0.7-0.4,0.9c-0.3,0.2-0.6,0.3-1.1,0.3
				l-1.5,0L61.2,142.2z M62,143.9l0.5,0c0.2,0,0.4,0,0.5-0.1c0.1-0.1,0.2-0.2,0.2-0.4c0-0.2-0.1-0.3-0.2-0.3
				c-0.1-0.1-0.3-0.1-0.5-0.1l-0.5,0L62,143.9z M62,144.6l0,1.1l0.6,0c0.2,0,0.4,0,0.5-0.1s0.2-0.2,0.2-0.4c0-0.3-0.2-0.5-0.7-0.5
				L62,144.6z"/>
			<path class="st3" d="M67,146.4l-2.4,0l0-4.1l2.4,0l0,0.7l-1.5,0l0,0.9l1.4,0l0,0.7l-1.4,0l0,1.1l1.5,0L67,146.4z"/>
			<path class="st3" d="M70.4,146.4l-0.3-1l-1.5,0l-0.3,1l-0.9,0l1.5-4.1l1.1,0l1.4,4.1L70.4,146.4z M69.9,144.7
				c-0.3-0.9-0.4-1.4-0.5-1.5c0-0.1-0.1-0.2-0.1-0.3c-0.1,0.2-0.2,0.8-0.5,1.8L69.9,144.7z"/>
			<path class="st3" d="M75.4,146.5l-1.1,0l-1.8-3.1l0,0c0,0.5,0,0.9,0,1.2l0,1.9l-0.8,0l0-4.1l1.1,0l1.8,3.1l0,0c0-0.5,0-0.9,0-1.1
				l0-1.9l0.8,0L75.4,146.5z"/>
			<path class="st3" d="M78.7,145.3c0,0.4-0.1,0.7-0.4,0.9c-0.3,0.2-0.6,0.3-1.1,0.3c-0.4,0-0.8-0.1-1.2-0.3l0-0.8
				c0.3,0.1,0.5,0.2,0.7,0.3c0.2,0.1,0.4,0.1,0.5,0.1c0.2,0,0.3,0,0.4-0.1c0.1-0.1,0.2-0.2,0.2-0.3c0-0.1,0-0.2-0.1-0.2
				c0-0.1-0.1-0.1-0.2-0.2c-0.1-0.1-0.3-0.2-0.5-0.3c-0.3-0.1-0.4-0.2-0.6-0.3c-0.1-0.1-0.2-0.2-0.3-0.4c-0.1-0.1-0.1-0.3-0.1-0.5
				c0-0.4,0.1-0.6,0.4-0.9c0.2-0.2,0.6-0.3,1-0.3c0.2,0,0.4,0,0.6,0.1s0.4,0.1,0.6,0.2l-0.3,0.7c-0.2-0.1-0.4-0.2-0.5-0.2
				s-0.3-0.1-0.4-0.1c-0.2,0-0.3,0-0.4,0.1c-0.1,0.1-0.1,0.2-0.1,0.3c0,0.1,0,0.1,0.1,0.2c0,0.1,0.1,0.1,0.2,0.2
				c0.1,0.1,0.3,0.2,0.6,0.3c0.4,0.2,0.6,0.4,0.8,0.6S78.7,145.1,78.7,145.3z"/>
		</g>
	</g>
	<g>
		<g>
			<g>
				<g>
					<g class="st15">
						<path class="st3" d="M103.2,140.3v-2.2H85.3v2.2c0,1.6-0.5,2.2-1.5,3.4l0,0c-1,1.3-1.5,2.8-1.5,4.4v15.3
							c0,1.5,1.2,2.6,2.6,2.6h18.7c1.5,0,2.6-1.2,2.6-2.6v-15.3c0-1.6-0.5-3.2-1.5-4.4l0,0C103.7,142.4,103.2,141.9,103.2,140.3z"/>
					</g>
					<path class="st11" d="M103.4,144.7l-0.2-0.2c-0.9-1.1-1.5-1.9-1.6-3.4h0l0-1.4H86.9v0.1h0l0,0.7c0,1.8-0.7,2.7-1.7,3.9
						l-0.2,0.2c-0.8,1-1.2,2.2-1.2,3.4v15.3c0,0.5,0.4,1,1,1c0.6-0.1,4.6-0.8,9.5-0.8c4.9,0,8.8,0.7,9.4,0.8c0.5,0,1-0.5,1-1v-15.3
						C104.6,146.9,104.2,145.7,103.4,144.7L103.4,144.7z"/>
				</g>
				<g>
					<path class="st16" d="M104,136.7L104,136.7c0-0.3-0.2-0.6-0.6-0.6H85c-0.3,0-0.6,0.3-0.6,0.6c0,0,0,0,0,0v2.9l0,0
						c0,0,0,0.1,0,0.1c0,0,0,0.1,0.1,0.1c0.1,0.1,0.1,0.1,0.2,0.1h18.9c0.1,0,0.2,0,0.2-0.1c0,0,0.1-0.1,0.1-0.1c0,0,0-0.1,0-0.1
						l0,0L104,136.7C104,136.7,104,136.7,104,136.7z"/>
				</g>
			</g>
		</g>
		<circle class="st3" cx="94.3" cy="155.2" r="6.2"/>
		<rect x="82.3" y="153.1" class="st3" width="24" height="4.3"/>
	</g>
	<g class="st17">
		<g>
			<path class="st5" d="M57.1,180.9c1.5,0,3,0.3,4.4,0.9l-1.1,2.6c-1-0.4-2-0.7-3.1-0.7c-0.5,0-1,0.2-1.4,0.5
				c-0.3,0.4-0.5,0.9-0.5,1.5v2.2h4.3v2.5h-4.3v1.6c0.1,1.2-0.6,2.3-1.7,2.8h8.1v3H50V195c0.6-0.2,1.2-0.6,1.6-1.2
				c0.3-0.5,0.5-1.2,0.4-1.8v-1.7h-2v-2.5h2v-2.2c-0.1-1.3,0.4-2.6,1.3-3.5C54.4,181.3,55.7,180.8,57.1,180.9z"/>
		</g>
	</g>
	<g class="st18">
		<path class="st5" d="M140.5,198H74.2c-4.3,0-7.7-3.5-7.7-7.7v-1.7c0-4.3,3.5-7.7,7.7-7.7h66.2c4.3,0,7.7,3.5,7.7,7.7v1.7
			C148.2,194.5,144.7,198,140.5,198z"/>
	</g>
</g>
<g>
	<g>
		<path class="st4" d="M295.4,204.9H185c-2.7,0-4.9-2.2-4.9-4.9V58.4c0-2.7,2.2-4.9,4.9-4.9h110.4c2.7,0,4.9,2.2,4.9,4.9V200
			C300.3,202.7,298.1,204.9,295.4,204.9z"/>
		<path class="st5" d="M300.3,176.4H180v-118c0-2.7,2.2-4.9,4.9-4.9h110.4c2.7,0,4.9,2.2,4.9,4.9V176.4z"/>
	</g>
	<rect x="196" y="67.7" class="st11" width="75.9" height="92"/>
	<rect x="196" y="93.7" class="st8" width="75.9" height="66"/>
	<g>
		<path class="st19" d="M254.3,149.4h-40.7c-1,0-1.9-0.8-1.9-1.9v-46.4c0-1,0.8-1.9,1.9-1.9h40.7c1,0,1.9,0.8,1.9,1.9v46.4
			C256.1,148.5,255.3,149.4,254.3,149.4z"/>
		<circle class="st81" cx="234.1" cy="128.5" r="11.2"/>
		<circle class="st19" cx="252" cy="103.9" r="2.4"/>
		<circle class="st19" cx="246.9" cy="103.9" r="1.2"/>
		<circle class="st19" cx="242.9" cy="103.9" r="1.2"/>
		<path class="st19" d="M226.2,108.6h-12.4c-0.5,0-1-0.4-1-1v-6.1c0-0.5,0.4-1,1-1h12.4c0.5,0,1,0.4,1,1v6.1
			C227.2,108.2,226.8,108.6,226.2,108.6z"/>
	</g>
	<g>
		<path class="st3" d="M278.7,104c-1.6-0.5-3.6-0.8-5.9-0.8c0,0-0.1,0-0.1,0c-2.3,0-4.2,0.3-5.8,0.8c-8.2,2.5-8.1,10-8.1,10v46.7
			c0,0.8,0.6,1.4,1.4,1.4h12.6h0.1h12.7c0.8,0,1.4-0.6,1.4-1.4V114C286.9,114,287,106.5,278.7,104z M282.6,153
			c0,0.6-0.4,1.1-0.9,1.1h-8.9H264c-0.5,0-0.9-0.5-0.9-1.1v-35.3c0-0.6,0.4-1.1,0.9-1.1h8.8h8.9c0.5,0,0.9,0.5,0.9,1.1V153z"/>
		<path class="st3" d="M275.1,94.4c-0.1,0-0.1,0-0.2,0h-2.2h-2c-0.1,0-0.3,0-0.4,0c-1.9,0.3-3.4,2.9-3.4,5.9v6.4c0,0.2,0,0.4,0,0.5
			c1.6-0.7,3.5-1,5.8-1.1c0,0,0.1,0,0.1,0c2.3,0,4.3,0.4,5.9,1.1c0-0.2,0-0.3,0-0.5v-6.4C278.8,97.2,277.2,94.6,275.1,94.4z"/>
		<path class="st11" d="M278,106.5c-1.5-0.5-3.2-0.7-5.2-0.7l-0.1,0c-1.9,0-3.6,0.2-5.1,0.7c-6.2,1.9-6.3,7.3-6.3,7.5v45.5h22.9V114
			C284.3,113.8,284.2,108.4,278,106.5z"/>
		<path class="st3" d="M272.7,89.9c-0.5-0.1-0.9-0.3-1.3-0.4c-0.4-0.1-0.8-0.3-1.1-0.4v5.3c0.1,0,0.3,0,0.4,0h2h2.2
			c0.1,0,0.1,0,0.2,0v-4C274.2,90.3,273.4,90.1,272.7,89.9z"/>
		<path class="st13" d="M272.7,89.9c0.7,0.2,1.5,0.4,2.4,0.5c0.6,0.1,1.2,0.1,1.9,0.1c0.1,0,0.3,0,0.4,0l0-2.5
			c-2.2,0-3.5-0.3-4.7-0.7c-0.2-0.1-0.4-0.1-0.6-0.2c-0.8-0.3-1.6-0.5-2.5-0.7c-2.9-0.5-6.7,1.7-6.9,1.8l1,2.3
			c0.9-0.5,3.7-1.9,5.5-1.5c0.4,0.1,0.7,0.2,1.1,0.3c0.4,0.1,0.8,0.2,1.1,0.4C271.9,89.6,272.3,89.8,272.7,89.9z"/>
		<path class="st4" d="M280.3,120.4h-7.6h-7.4c-0.4,0-0.8,0.4-0.8,0.9v29.9c0,0.5,0.3,0.9,0.8,0.9h7.4h7.6c0.4,0,0.8-0.4,0.8-0.9
			v-29.9C281.1,120.8,280.7,120.4,280.3,120.4z"/>
	</g>
	<g>
		<ellipse class="st21" cx="230.1" cy="146.3" rx="6" ry="19.8"/>
		<ellipse class="st3" cx="263.3" cy="146.3" rx="6" ry="19.8"/>
		<g>
			<polygon class="st22" points="263.3,126.5 263.3,126.5 263.3,126.5 			"/>
			<path class="st4" d="M263.3,166.1C263.3,166.1,263.2,166.1,263.3,166.1c-3.3,0-6-8.9-6-19.8s2.7-19.8,6.1-19.8l-33.1,0l0,19.4
				l-6,0c0,0.1,0,0.3,0,0.4c0,10.9,2.7,19.8,6,19.8l0,0L263.3,166.1L263.3,166.1z"/>
		</g>
		<polygon class="st23" points="263.3,166.1 263.2,166.1 263.3,166.1 		"/>
		<path class="st3" d="M255,142.9c2.2-2.7,3.4-8.4,3.4-8.4l0,0c1.1-4.9,2.9-8,4.9-8l-33.1,0v0c0,0,0,0,0,0c-2.1,0-3.9,3.5-5,8.8
			c-0.4,1.5-1.5,5.6-3.2,7.6c-2,2.5-4.3,3.5-4.3,3.5l6.4,0l12.1,0l14.6,0C250.7,146.4,253.1,145.4,255,142.9z"/>
		<ellipse class="st24" cx="263.7" cy="146.3" rx="2.2" ry="7.4"/>
	</g>
	<g>
		<path class="st3" d="M207.5,80.8c0,1.4-0.4,2.5-1.2,3.2c-0.8,0.7-1.9,1.1-3.4,1.1h-2.4v-8.5h2.7c1.4,0,2.5,0.4,3.2,1.1
			C207.2,78.5,207.5,79.5,207.5,80.8z M205.7,80.8c0-1.8-0.8-2.7-2.4-2.7h-1v5.5h0.8C204.8,83.6,205.7,82.7,205.7,80.8z"/>
		<path class="st3" d="M214.2,85.1h-4.9v-8.5h4.9v1.5h-3.1V80h2.9v1.5h-2.9v2.2h3.1V85.1z"/>
		<path class="st3" d="M219.2,85.1h-1.8v-7h-2.3v-1.5h6.4v1.5h-2.3V85.1z"/>
		<path class="st3" d="M227.7,85.1h-4.9v-8.5h4.9v1.5h-3.1V80h2.9v1.5h-2.9v2.2h3.1V85.1z"/>
		<path class="st3" d="M231.3,81.9v3.3h-1.8v-8.5h2.5c1.2,0,2,0.2,2.6,0.6c0.6,0.4,0.8,1.1,0.8,1.9c0,0.5-0.1,0.9-0.4,1.3
			c-0.3,0.4-0.7,0.7-1.2,0.9c1.3,1.9,2.1,3.1,2.5,3.7h-2l-2-3.3H231.3z M231.3,80.4h0.6c0.6,0,1-0.1,1.3-0.3
			c0.3-0.2,0.4-0.5,0.4-0.9c0-0.4-0.1-0.7-0.4-0.9c-0.3-0.2-0.7-0.3-1.3-0.3h-0.5V80.4z"/>
		<path class="st3" d="M240.5,80.4h3.4v4.4c-0.5,0.2-1.1,0.3-1.5,0.4c-0.5,0.1-1,0.1-1.5,0.1c-1.3,0-2.3-0.4-2.9-1.1
			c-0.7-0.8-1-1.8-1-3.2c0-1.4,0.4-2.4,1.2-3.2c0.8-0.8,1.9-1.1,3.3-1.1c0.9,0,1.7,0.2,2.5,0.5l-0.6,1.4c-0.6-0.3-1.3-0.5-1.9-0.5
			c-0.8,0-1.4,0.3-1.9,0.8c-0.5,0.5-0.7,1.2-0.7,2.1c0,0.9,0.2,1.6,0.6,2.1c0.4,0.5,0.9,0.7,1.6,0.7c0.4,0,0.8,0,1.1-0.1v-1.8h-1.6
			V80.4z"/>
		<path class="st3" d="M250.8,85.1h-4.9v-8.5h4.9v1.5h-3.1V80h2.9v1.5h-2.9v2.2h3.1V85.1z"/>
		<path class="st3" d="M260.1,85.1h-2.3l-3.7-6.4H254c0.1,1.1,0.1,1.9,0.1,2.4v4h-1.6v-8.5h2.3l3.7,6.3h0c-0.1-1.1-0.1-1.9-0.1-2.3
			v-4h1.6V85.1z"/>
		<path class="st3" d="M265.5,85.1h-1.8v-7h-2.3v-1.5h6.4v1.5h-2.3V85.1z"/>
	</g>
	<g class="st17">
		<g>
			<path class="st5" d="M197.2,180.9c1.5,0,3,0.3,4.4,0.9l-1.1,2.6c-1-0.4-2-0.7-3.1-0.7c-0.5,0-1,0.2-1.4,0.5
				c-0.3,0.4-0.5,0.9-0.5,1.5v2.2h4.3v2.5h-4.3v1.6c0.1,1.2-0.6,2.3-1.7,2.8h8.1l0,3h-11.9V195c0.6-0.2,1.2-0.6,1.6-1.2
				c0.3-0.5,0.5-1.2,0.4-1.8v-1.7h-2v-2.5h2v-2.2c-0.1-1.3,0.4-2.6,1.3-3.5C194.6,181.3,195.9,180.8,197.2,180.9z"/>
		</g>
	</g>
	<g class="st18">
		<path class="st5" d="M280.6,198h-66.2c-4.3,0-7.7-3.5-7.7-7.7v-1.7c0-4.3,3.5-7.7,7.7-7.7h66.2c4.3,0,7.7,3.5,7.7,7.7v1.7
			C288.4,194.5,284.9,198,280.6,198z"/>
	</g>
</g>
<g>
	<path class="st4" d="M436.9,204.9H326.5c-2.7,0-4.9-2.2-4.9-4.9V58.4c0-2.7,2.2-4.9,4.9-4.9h110.4c2.7,0,4.9,2.2,4.9,4.9V200
		C441.9,202.7,439.6,204.9,436.9,204.9z"/>
	<path class="st5" d="M441.9,176.4H321.6v-118c0-2.7,2.2-4.9,4.9-4.9h110.4c2.7,0,4.9,2.2,4.9,4.9V176.4z"/>
</g>
<g class="st17">
	<g>
		<path class="st5" d="M339.4,180.9c1.5,0,3,0.3,4.4,0.9l-1.1,2.6c-1-0.4-2-0.7-3.1-0.7c-0.5,0-1,0.2-1.4,0.5
			c-0.3,0.4-0.5,0.9-0.5,1.5v2.2h4.3v2.5h-4.3v1.6c0.1,1.2-0.6,2.3-1.7,2.8h8.1v3h-11.9V195c0.6-0.2,1.2-0.6,1.6-1.2
			c0.3-0.5,0.5-1.2,0.4-1.8v-1.7h-2v-2.5h2v-2.2c-0.1-1.3,0.4-2.6,1.3-3.5C336.7,181.3,338,180.8,339.4,180.9z"/>
	</g>
</g>
<g class="st18">
	<path class="st5" d="M422.8,198h-66.2c-4.3,0-7.7-3.5-7.7-7.7v-1.7c0-4.3,3.5-7.7,7.7-7.7h66.2c4.3,0,7.7,3.5,7.7,7.7v1.7
		C430.5,194.5,427,198,422.8,198z"/>
</g>
<g>
	<g>
		<path class="st25" d="M531.6,138.7c-7.9,20.4-5.4,34-8.6,45.8c-1.9,6.9-6.5,12.6-13.5,14.8c-2.3,0.8-5.5,1.7-7.7,0
			c-1.1-0.8-1.7-2.1-2-3.5c-0.8-3.9-0.3-8.5,0.2-12.4c0.8-6.2,2.6-12.2,3.9-18.3c1.7-7.5,4.2-14.8,11.1-18.3L531.6,138.7z"/>
		<path class="st25" d="M524.6,115l-14.3,5.5c-1.1,0.4-2.2,0.9-3.2,1.5l0,0c-6.7,3.8-11.2,10.7-11.8,18.5c-0.2,2.1-1,8.7-2,15.9
			c-1,7.5-2.2,15.7-2.9,20.5c-0.4,2.7,0,3.8,2.3,4.7c2.5,1,8.4,1.9,16.8-7l0,0c2.2-2.3,4.2-5.4,5.8-9.6c4.7-12.4,3.9-27,12.7-47.1
			c0.7-1.7,1.5-3.4,2.5-5.2L524.6,115z"/>
		<path class="st25" d="M534.2,68.6c-5.6-3.4-10.8-6.9-15.5-10.1c-0.7-0.5-1.4-0.9-2-1.4c-3.5-2.4-8.8-6.4-12.9-9.5
			c-5.1-3.8-7.6-5.4-9.6,2.4c-2,7.4,1.3,16.2,6.2,21.8c1.4,1.6,3,3.1,4.7,4.6c2.6,2.3,5.5,4.5,8.5,6.9c1.6,1.3,3.3,2.6,5,4
			c7.1-3.4,14.7-7.4,22.1-11.8c0.9-0.5,1.8-1.1,2.7-1.6C540.2,72.3,537.2,70.4,534.2,68.6z"/>
		<path class="st25" d="M532.4,101c-4.7-5.6-9.4-9.9-13.8-13.5c-0.1,0-0.2,0.1-0.3,0.1c-4.4,2.1-8.5,4-12.4,5.7
			c-0.1,0-0.2,0.1-0.3,0.2c-7.8,3.8-24.1,5-24.2,9.6c0,10.4,16.1,14.8,25.4,13.2c0.1,0,0.1,0,0.2,0c8.5-1.5,16.7-5.6,27.7-8.7
			c0.8-0.2,1.6-0.4,2.4-0.7C535.5,104.7,533.9,102.8,532.4,101z"/>
		<path class="st26" d="M655.1,258.5c-1.8,22.1-46.1,36.4-65.7,23c-12-8.2-14.6-41.3-29.8-47.8c-15.2-6.4-24-18.9-28.1-26.1
			c-1.9-3.3-2.7-5.5-2.7-5.5s1.2-0.2,3.4-0.5c12.9-1.9,59.4-8.1,86.1-5.6c2.4,0.2,4.6,0.5,6.6,0.9c7.6,1.4,12.4,3.9,12.4,7.9
			C637.4,224.2,657,235.4,655.1,258.5z"/>
		<path class="st27" d="M576.6,293.1l-5.3-37.8c0,0,0.7-1.2,2.3-3.3c4.4-5.9,15.3-18.6,33.5-27.9c0,0,0,0,0,0c1.6-0.8,3.3-1.6,5-2.4
			c7.7-3.4,16.6-6.2,26.7-7.6c3.3-0.5,6.8-0.8,10.4-1c0,0,22.7,34,49.8,80"/>
	</g>
	
		<rect x="513.9" y="13.3" transform="matrix(0.9952 9.761902e-02 -9.761902e-02 0.9952 13.641 -54.3729)" class="st5" width="97.2" height="197.8"/>
	<g>
		<defs>
			<path id="SVGID_00000154404722416983082270000008236253569497068727_" d="M598.3,218.2l-91.5-8.9c-2.1-0.2-3.6-2.1-3.4-4.1
				l19-194c0.2-2.1,2.1-3.6,4.1-3.4l91.5,8.9c2.1,0.2,3.6,2.1,3.4,4.1l-19,194C602.2,216.9,600.4,218.4,598.3,218.2z"/>
		</defs>
		<clipPath id="SVGID_00000063610110369894852170000002919835729100618137_">
			<use xlink:href="#SVGID_00000154404722416983082270000008236253569497068727_"  style="overflow:visible;"/>
		</clipPath>
		<path style="clip-path:url(#SVGID_00000063610110369894852170000002919835729100618137_);fill:none;" d="M451,217.7
			c0,0,28.6-95,84.6-89.2c60.1,6.2,90.2-132.3,90.2-132.3L599.7,234L451,217.7z"/>
	</g>
	<path class="st27" d="M613.9,12.9l-82.7-8.1c-6.4-0.6-12.1,4.1-12.7,10.4l-4,40.4v0L512,82.2l-0.9,8.8v0l-2.4,24.9l-0.6,5.7
		l-3.5,35.5v0l-0.9,9.2l-1.4,14.2v0l-1.7,17.6l-0.2,2.3c-0.1,0.6-0.1,1.2,0,1.7c0.3,5.6,4.7,10.4,10.5,11l25.8,2.5l52.3,5.1l4.6,0.5
		c6.4,0.6,12.1-4.1,12.7-10.4l1.5-15.2L620.8,62l3.6-36.4C625,19.2,620.3,13.5,613.9,12.9z M613.5,66.9l-3.6,37.2c0,0,0,0,0,0
		l-4.6,46.8l-4.4,44.6l-1.3,13.4c-0.3,2.6-2.6,4.5-5.2,4.3l-9.4-0.9h0l-53.9-5.3l-19.4-1.9c-2.6-0.3-4.5-2.6-4.3-5.1c0,0,0,0,0-0.1
		l0.8-8.3l1.7-17.4l2.5-25.5l0-0.1v0l2.9-30.1v0l0.5-4.7l2.6-26.3v0l0-0.3l2.7-27.1l4.3-44.2c0.3-2.6,2.6-4.5,5.2-4.3l82.7,8.1
		c2.6,0.3,4.6,2.6,4.3,5.2L613.5,66.9z"/>
	<circle class="st83" cx="561.9" cy="119.3" r="35.8"/>
	<g>
		<g>
			<path class="st27" d="M537.3,21.8c0.1-0.9,0.2-1.9,0.3-2.8c0-0.1,0.1-0.2,0.2-0.2c0.3,0,0.5,0,0.8,0.1c0.1,0,0.2,0.1,0.2,0.2
				c-0.1,1.4-0.3,2.8-0.4,4.2c0,0.5-0.1,1-0.1,1.4c0,0.2-0.1,0.2-0.2,0.2c-0.3,0-0.5,0-0.8-0.1c-0.1,0-0.2-0.1-0.2-0.2
				C537.1,23.7,537.2,22.7,537.3,21.8C537.3,21.8,537.3,21.8,537.3,21.8z"/>
			<path class="st27" d="M536.9,22.3c-0.1,0.8-0.1,1.5-0.2,2.3c0,0.1-0.1,0.2-0.2,0.2c-0.3,0-0.5,0-0.8-0.1c-0.1,0-0.2-0.1-0.2-0.2
				c0.1-1.5,0.3-3,0.4-4.5c0,0,0-0.1,0-0.1c0-0.1,0.1-0.1,0.1-0.1c0.3,0,0.6,0.1,0.9,0.1c0.1,0,0.1,0.1,0.1,0.2
				c0,0.3-0.1,0.6-0.1,0.9C537,21.4,536.9,21.8,536.9,22.3C536.9,22.3,536.9,22.3,536.9,22.3z"/>
			<path class="st27" d="M535.3,22.7c-0.1,0.6-0.1,1.2-0.2,1.8c0,0.1-0.1,0.2-0.2,0.2c-0.3,0-0.5,0-0.8-0.1c-0.1,0-0.2-0.1-0.2-0.2
				c0.1-1.2,0.2-2.4,0.3-3.6c0-0.1,0.1-0.2,0.2-0.2c0.3,0,0.5,0,0.8,0.1c0.2,0,0.2,0.1,0.2,0.2C535.4,21.5,535.4,22.1,535.3,22.7z"
				/>
			<path class="st27" d="M532.6,22.9c0-0.4,0.1-0.9,0.1-1.3c0-0.1,0.1-0.2,0.2-0.1c0.3,0,0.5,0,0.8,0.1c0.1,0,0.2,0.1,0.1,0.2
				c-0.1,0.7-0.1,1.4-0.2,2c0,0.2,0,0.3,0,0.5c0,0.1-0.1,0.2-0.2,0.1c-0.3,0-0.5-0.1-0.8-0.1c-0.1,0-0.2-0.1-0.1-0.2
				C532.5,23.8,532.6,23.4,532.6,22.9z"/>
			<path class="st27" d="M532.2,23.4c0,0.3,0,0.5-0.1,0.8c0,0.1-0.1,0.2-0.2,0.2c-0.3,0-0.5,0-0.8-0.1c-0.1,0-0.2-0.1-0.2-0.2
				c0-0.5,0.1-1,0.1-1.6c0-0.1,0.1-0.2,0.2-0.2c0.3,0,0.5,0.1,0.8,0.1c0.1,0,0.2,0.1,0.1,0.2C532.2,22.8,532.2,23.1,532.2,23.4z"/>
		</g>
		<g>
			<path class="st27" d="M564,23l-1.5,1l0.4,0.6l0.5-0.3c0.1,0,0.2-0.1,0.3-0.3l-0.1,0.4l0,0.4l-0.2,2.4l0.9,0.1l0.4-4.2L564,23z"/>
			<path class="st27" d="M568.4,23.9c-0.2-0.4-0.6-0.6-1.1-0.7c-0.5,0-0.9,0.1-1.2,0.4c-0.3,0.3-0.4,0.9-0.5,1.6
				c-0.1,0.7,0,1.3,0.2,1.7c0.2,0.4,0.6,0.6,1.1,0.6c0.5,0,0.9-0.1,1.2-0.4c0.3-0.3,0.4-0.9,0.5-1.6
				C568.7,24.8,568.7,24.3,568.4,23.9z M567.8,25.4c0,0.5-0.1,0.9-0.2,1.1c-0.1,0.2-0.3,0.3-0.5,0.3c-0.2,0-0.4-0.1-0.4-0.4
				c-0.1-0.2-0.1-0.6,0-1.1c0-0.5,0.1-0.9,0.2-1.1c0.1-0.2,0.3-0.3,0.5-0.3c0.2,0,0.3,0.1,0.4,0.4C567.8,24.5,567.8,24.9,567.8,25.4
				z"/>
			<path class="st27" d="M570.2,24.6c-0.1-0.1-0.2-0.1-0.4-0.2c-0.2,0-0.3,0-0.4,0.1c-0.1,0.1-0.1,0.2-0.2,0.4c0,0.2,0,0.3,0.1,0.4
				c0.1,0.1,0.2,0.1,0.4,0.2c0.2,0,0.3,0,0.4-0.1c0.1-0.1,0.2-0.2,0.2-0.3C570.3,24.8,570.3,24.7,570.2,24.6z M570,27
				c-0.1-0.1-0.2-0.1-0.4-0.2c-0.2,0-0.3,0-0.4,0.1c-0.1,0.1-0.2,0.2-0.2,0.4c0,0.2,0,0.3,0.1,0.4c0.1,0.1,0.2,0.1,0.4,0.2
				c0.2,0,0.3,0,0.4-0.1c0.1-0.1,0.2-0.2,0.2-0.3C570.1,27.2,570,27.1,570,27z"/>
			<path class="st27" d="M573.5,24.3c-0.2-0.4-0.6-0.6-1.1-0.7c-0.5,0-0.9,0.1-1.2,0.4c-0.3,0.3-0.4,0.9-0.5,1.6
				c-0.1,0.7,0,1.3,0.2,1.7c0.2,0.4,0.6,0.6,1.1,0.6c0.5,0,0.9-0.1,1.2-0.4c0.3-0.3,0.4-0.9,0.5-1.6
				C573.8,25.3,573.7,24.7,573.5,24.3z M572.8,25.9c0,0.5-0.1,0.9-0.2,1.1c-0.1,0.2-0.3,0.3-0.5,0.3c-0.2,0-0.4-0.1-0.4-0.4
				c-0.1-0.2-0.1-0.6,0-1.1c0-0.5,0.1-0.9,0.2-1.1c0.1-0.2,0.3-0.3,0.5-0.3c0.2,0,0.3,0.1,0.4,0.4C572.9,25,572.9,25.4,572.8,25.9z"
				/>
			<path class="st27" d="M576.9,24.6c-0.2-0.4-0.6-0.6-1.1-0.7c-0.5,0-0.9,0.1-1.2,0.4c-0.3,0.3-0.4,0.9-0.5,1.6
				c-0.1,0.7,0,1.3,0.2,1.7c0.2,0.4,0.6,0.6,1.1,0.6c0.5,0,0.9-0.1,1.2-0.4c0.3-0.3,0.4-0.9,0.5-1.6C577.2,25.6,577.1,25,576.9,24.6
				z M576.2,26.2c0,0.5-0.1,0.9-0.2,1.1c-0.1,0.2-0.3,0.3-0.5,0.3c-0.2,0-0.4-0.1-0.4-0.4c-0.1-0.2-0.1-0.6,0-1.1
				c0-0.5,0.1-0.9,0.2-1.1c0.1-0.2,0.3-0.3,0.5-0.3c0.2,0,0.3,0.1,0.4,0.4C576.2,25.3,576.2,25.7,576.2,26.2z"/>
		</g>
		<path class="st27" d="M610.6,28.2l-1-0.1c0-0.2,0-0.5,0.1-0.7c0.1-0.5-0.3-0.7-0.6-0.8c-2.3-0.2-4.6-0.4-6.9-0.6
			c-0.4,0-0.7,0.2-0.8,0.7c-0.1,1.1-0.2,2.2-0.3,3.4c0,0.5,0.3,0.8,0.7,0.8c2.3,0.2,4.6,0.4,6.9,0.6c0.4,0,0.8-0.2,0.8-0.6
			c0-0.2,0-0.5,0.1-0.7l1,0.1L610.6,28.2z"/>
	</g>
	<path class="st26" d="M645.6,138.8c-6.2-16.5-10.7-33.7-13.7-47.9c-0.2-0.8-0.3-1.5-0.5-2.3c-0.1-0.4-0.2-0.8-0.2-1.2
		c-0.3-1.4-0.6-2.9-1-4.5c-1.5-7-3.4-15.1-5-19c-0.4-0.9-0.8-1.6-1.1-2c-8.2-2-16.9,10.9-17.4,22c-0.5,12.5,6.8,24.7,5.2,44.2
		c-0.8,10.6-4.8,20.7-10.8,29.5c-3.8,5.5-7.2,11.6-10,17.9c-9.5,21.2-9.9,42.2,1.8,48.3c10.9,5.7,27.4-4.2,38.3-22.3l6,3.3
		C639.5,186.1,650.3,151.2,645.6,138.8z"/>
	<g>
		<path class="st26" d="M457.4,207.7l58.6-63c0,0,15.8-19,25.3-11.1c9.5,7.9-4.3,24.3-4.3,24.3s-33.6,37.2-38.2,46.8
			c-4.6,9.6-22.4,43.5-22.4,43.5L457.4,207.7z"/>
		
			<ellipse transform="matrix(0.3395 -0.9406 0.9406 0.3395 127.5201 559.7006)" class="st26" cx="462.3" cy="189" rx="17.4" ry="14.5"/>
		
			<ellipse transform="matrix(0.3395 -0.9406 0.9406 0.3395 117.2648 538.1893)" class="st26" cx="441.9" cy="185.6" rx="17.4" ry="14.5"/>
		<path class="st30" d="M539.9,147.6c0.8-0.8,2.2-2.8,2.3-3.1c0.4-1.3-0.1-2.9-0.7-4.1c-0.2-0.3-0.3-0.7-0.5-1
			c-0.1-0.1-0.1-0.2-0.1-0.3c-0.4-0.7-0.9-1.3-1.5-1.9c-0.6-0.6-1.2-1.1-1.9-1.5c-0.1-0.1-0.2-0.1-0.3-0.2c-0.3-0.2-0.7-0.4-1-0.6
			c-1.3-0.6-2.8-1.1-4.1-0.8c-0.3,0.1-2.4,1.5-3.2,2.3c-1.6,1.5-3.1,3.2-3.3,3.6c-1.6,3-0.7,6.8,1.7,9.1c2.3,2.4,6.1,3.3,9.1,1.8
			C536.6,150.7,538.4,149.2,539.9,147.6z"/>
		<g>
			<path class="st26" d="M538.2,225.9c3.2-3.3-3.8-9-6.2-9.8c-5.3-1.6-11.2-0.3-16.3,1.4c-13.5,4.4-28.2,13.4-38,20l1.1-45.1l-4.6-9
				l-8.5-5.9l-13.1-2.5l-16.7,5.2c0.1-6.7-3.2-12.7-9-14.7c-10.7-3.9-20.5,7.2-26.3,14.7c-9.1,11.8-13.5,25.1-18.1,39.2
				c-3.2,9.6-5.7,21.7-11.8,30c-6.6,8.9-27.5,17-27.5,17c-4.5,14.3-3.4,26.3,0.4,36.3c9.7,25.1,58.1,12.9,71.8-0.1
				c13.7-13,49-11.5,80.1-41.8C507.2,249.4,525.7,232.3,538.2,225.9z"/>
			<path class="st31" d="M538.2,225.9c-4.1-2.5-8.9-2.7-12.9,0.3c-1.9,1.5-3.3,3.2-3.5,5.8c-0.1,1.6,0.1,3.2,0.5,4.8
				c0.3-0.2,0.6-0.4,0.9-0.6C531,230,535.9,227.1,538.2,225.9z"/>
		</g>
		<path class="st27" d="M288.9,293.1l65-38.9c0,0,3.3,0.5,8.6,2.2h0c11.6,3.7,32.7,13.4,48,36.7
			C412.3,295.9,288.9,293.1,288.9,293.1z"/>
	</g>
	<g>
		<path class="st27" d="M584.5,103.7l-4.7-0.3c-0.5,0-1,0.3-1.2,0.7l-2.5,6.2l-32.3-2.1c-0.4,0-0.7,0.1-1,0.4
			c-0.2,0.3-0.3,0.7-0.2,1.1l3.8,14.5c0.1,0.5,0.6,0.8,1.1,0.9l22,1.4l-1.9,4.6l-18.1-1.2c0,0-0.1,0-0.1,0c-0.6,0-1.1,0.5-1.1,1.1
			c0,0.7,0.5,1.2,1.1,1.3l3.7,0.2l11.5,0.7l3.7,0.2c0.5,0,1-0.3,1.2-0.7l0.5-1.2l10.5-25.8l3.9,0.3c0.7,0,1.2-0.5,1.3-1.1
			C585.6,104.3,585.1,103.8,584.5,103.7z M546.5,115.5l-1.3-4.8l7.7,0.5l0.3,4.8L546.5,115.5z M548.4,122.8l-1.3-4.8l6.2,0.4
			l0.3,4.8L548.4,122.8z M562.8,123.7l-6.8-0.4l-0.3-4.8l8,0.5L562.8,123.7z M564.2,116.7l-8.6-0.6l-0.3-4.8l9.7,0.6L564.2,116.7z
			 M570.4,124.2l-5.2-0.3l0.9-4.7l6.2,0.4L570.4,124.2z M573.2,117.3l-6.7-0.4l0.9-4.7l7.7,0.5L573.2,117.3z"/>
		<path class="st11" d="M570,131.6c-0.5-0.2-1-0.4-1.5-0.4c-1.7-0.1-3.1,0.8-3.9,2.1c-0.3,0.5-0.5,1.1-0.5,1.7
			c-0.1,2.3,1.6,4.3,3.9,4.4c2.3,0.1,4.3-1.6,4.4-3.9C572.4,133.9,571.4,132.3,570,131.6z M568,137.1c-1-0.1-1.7-0.9-1.7-1.9
			c0.1-1,0.9-1.7,1.9-1.7c1,0.1,1.7,0.9,1.7,1.9C569.9,136.5,569,137.2,568,137.1z"/>
		<path class="st11" d="M553.1,132.6c-0.6-1.4-1.9-2.5-3.6-2.6c0,0-0.1,0-0.1,0c-2.2-0.1-4.1,1.6-4.3,3.9c-0.1,2.3,1.6,4.3,3.9,4.4
			c2.3,0.1,4.3-1.6,4.4-3.9C553.4,133.8,553.3,133.1,553.1,132.6z M549.1,135.9c-1-0.1-1.7-0.9-1.7-1.9c0.1-1,0.9-1.7,1.9-1.7
			c1,0.1,1.7,0.9,1.7,1.9C550.9,135.2,550.1,136,549.1,135.9z"/>
	</g>
	<circle class="st11" cx="589.4" cy="90.4" r="9.5"/>
	<g>
		<path class="st3" d="M591.8,89.3c0.3-0.3,0.4-0.7,0.5-1.2c0-0.7-0.2-1.2-0.7-1.6c-0.5-0.4-1.2-0.7-2-0.7c-0.9-0.1-1.6,0.1-2.1,0.4
			c-0.6,0.4-0.9,0.8-0.9,1.5c0,0.4,0,0.8,0.2,1.2c0.2,0.4,0.5,0.8,1,1.1c-0.6,0.3-1.1,0.6-1.4,0.9c-0.3,0.4-0.5,0.8-0.5,1.3
			c0,0.2,0,0.4,0,0.5c0.1,0.5,0.3,0.9,0.7,1.3c0.3,0.3,0.8,0.5,1.3,0.6c0.3,0.1,0.6,0.1,1,0.2c0.9,0.1,1.7-0.1,2.3-0.5
			c0.6-0.4,0.9-1,1-1.7c0-0.5-0.1-0.9-0.3-1.3c-0.3-0.4-0.7-0.8-1.4-1.2C591.1,89.9,591.5,89.6,591.8,89.3z M590,93.3
			c-0.2,0.2-0.6,0.3-1.1,0.2c-0.4,0-0.8-0.2-1-0.4c-0.2-0.2-0.3-0.5-0.3-0.8c0-0.6,0.5-1.1,1.4-1.4c0.5,0.3,0.8,0.6,1.1,0.8
			c0.2,0.3,0.3,0.5,0.3,0.8C590.4,92.9,590.3,93.1,590,93.3z M590.2,88.8c-0.2,0.2-0.5,0.4-0.9,0.5c-0.4-0.2-0.7-0.5-0.8-0.7
			c-0.1-0.2-0.2-0.4-0.2-0.7c0-0.3,0.1-0.5,0.3-0.6c0.2-0.2,0.5-0.2,0.8-0.2c0.3,0,0.6,0.1,0.8,0.3c0.2,0.2,0.3,0.4,0.3,0.7
			C590.5,88.4,590.4,88.6,590.2,88.8z"/>
	</g>
</g>
<rect y="293.1" class="st84" width="700" height="27.1"/>
<g>
	<path class="st8" d="M135,238.5c-11.2,0-20.2,9-20.2,20.2c0,11.2,9,20.2,20.2,20.2s20.2-9,20.2-20.2
		C155.3,247.6,146.2,238.5,135,238.5z"/>
	<path class="st8" d="M135,243.6c-8.4,0-15.2,6.8-15.2,15.2c0,8.4,6.8,15.2,15.2,15.2s15.2-6.8,15.2-15.2
		C150.2,250.4,143.4,243.6,135,243.6L135,243.6z"/>
	<path class="st3" d="M135.9,248.7c1.6,0,3.2,0.4,4.7,1l-1.1,2.8c-1-0.5-2.2-0.7-3.3-0.8c-0.5,0-1.1,0.2-1.5,0.5
		c-0.4,0.4-0.5,1-0.5,1.6v2.3h4.5v2.6h-4.5v1.7c0.1,1.3-0.7,2.5-1.8,3h8.7v3.2h-12.7v-3.1c0.7-0.3,1.3-0.7,1.7-1.2
		c0.3-0.6,0.5-1.2,0.5-1.9v-1.8h-2.1v-2.6h2.2v-2.4c-0.1-1.4,0.4-2.8,1.4-3.8C133.1,249.1,134.5,248.7,135.9,248.7z"/>
</g>
<g>
	<path class="st1" d="M674.7,166.7c-11.4,0-20.7,9.3-20.7,20.7c0,11.4,9.3,20.7,20.7,20.7c11.4,0,20.7-9.3,20.7-20.7
		S686.1,166.7,674.7,166.7z"/>
	<path class="st8" d="M674.7,205.1c-9.7,0-17.6-7.9-17.6-17.6c0-9.7,7.9-17.6,17.6-17.6c9.7,0,17.6,7.9,17.6,17.6
		C692.3,197.2,684.4,205.1,674.7,205.1z M674.7,171.9c-8.6,0-15.5,7-15.5,15.5s7,15.5,15.5,15.5c8.6,0,15.5-7,15.5-15.5
		S683.3,171.9,674.7,171.9L674.7,171.9z"/>
	<path class="st8" d="M675.6,177.2c1.7,0,3.3,0.4,4.9,1l-1.2,2.9c-1.1-0.5-2.2-0.8-3.4-0.8c-0.6,0-1.1,0.2-1.5,0.6
		c-0.4,0.4-0.6,1-0.5,1.6v2.4h4.7v2.7h-4.7v1.8c0.1,1.3-0.7,2.6-1.9,3.1h8.9v3.3h-13.1v-3.1c0.7-0.3,1.3-0.7,1.8-1.3
		c0.3-0.6,0.5-1.3,0.5-1.9v-1.8h-2.2v-2.7h2.2v-2.4c-0.1-1.4,0.4-2.8,1.4-3.9C672.7,177.6,674.1,177.1,675.6,177.2z"/>
</g>
<g>
	<path class="st1" d="M59,243c-20.2,0-36.6,16.4-36.6,36.6c0,20.2,16.4,36.6,36.6,36.6c20.2,0,36.6-16.4,36.6-36.6
		C95.6,259.4,79.2,243,59,243z"/>
	<path class="st54" d="M59,252.2c-15.2,0-27.4,12.3-27.4,27.4c0,15.2,12.3,27.4,27.4,27.4s27.4-12.3,27.4-27.4
		C86.4,264.5,74.2,252.2,59,252.2L59,252.2z"/>
	<path class="st1" d="M60.6,261.6c3,0,5.9,0.6,8.6,1.8l-2,5.1c-1.9-0.9-3.9-1.3-6-1.4c-1-0.1-1.9,0.3-2.6,1c-0.7,0.8-1,1.8-0.9,2.8
		v4.2h8.2v4.8h-8.2v3.1c0.1,2.3-1.2,4.5-3.3,5.5H70v5.8H46.9v-5.5c1.2-0.5,2.3-1.2,3.1-2.2c0.6-1,0.9-2.2,0.8-3.4v-3.2h-3.8l0-4.8
		H51v-4.3c-0.2-2.5,0.8-5,2.5-6.8C55.5,262.3,58,261.4,60.6,261.6z"/>
</g>
<path class="st1" d="M407.9,103.7c5.8-0.2,8.7-7.1,3.6-8.3c7.2-3.8,5.8-11.3-0.3-9.9c5.1-5.5-0.4-9.9-3.4-7.7c3-3.9-2.1-7.6-4.9-3.6
	c0-1,1.9-5.1-4.5-7.9c-6.5-2.9-8.2,1.3-8.9,1.9c1.1-4.7-5.1-6.1-6-1.2c-0.4-3.6-7.3-4.9-8,2.6c-3-5.5-9.5-1.5-7.6,6.4
	c-4.3-3-7.5,3.7-3.8,8.2c-3.7-2-5.9,4.1-2.9,10.2c-2.2-1.2-4.2-0.7-4.9,1.8c-1.2,4.3,0.5,8.9,2.7,12.8c4,6.8,4.9,15,2.2,22.4
	l-7.9,21.9l10.1,4.5l11.1-20.5c3.8-6.9,10.5-11.7,18.2-13.3c4.4-0.9,8.9-2.8,11.3-6.5c1.4-2.2,0.4-4.1-1.9-4.9
	C408.8,110.8,411.9,105.1,407.9,103.7z"/>
<g>
	<g>
		<g>
			
				<ellipse transform="matrix(0.9564 -0.2922 0.2922 0.9564 -20.9069 121.8545)" class="st55" cx="397.5" cy="130.9" rx="23.7" ry="23.7"/>
		</g>
		<g>
			<path class="st11" d="M400.2,119.5c-0.6,0.6-1.6,0.7-2.2,0.1c-0.6-0.6-0.7-1.6-0.1-2.2c0.6-0.6,1.6-0.7,2.2-0.1
				S400.8,118.9,400.2,119.5z"/>
		</g>
	</g>
	<g>
		<path class="st11" d="M421.1,128.5c-0.5,5-2.5,9.9-6.2,13.9c-8.9,9.6-23.9,10.1-33.5,1.2c-4.4-4.1-6.9-9.4-7.4-14.9
			c-0.7,7.1,1.8,14.4,7.4,19.6c9.6,8.9,24.6,8.4,33.5-1.2C419.7,141.9,421.8,135.1,421.1,128.5z"/>
	</g>
</g>
<g>
	<path class="st11" d="M383.6,138.9c-0.6,11.9-5.2,20.1-12.3,22.2c-5.5,1.6-5-0.6-8-0.5c-2.9,0.1-4.4,2.5-8.5,1.2
		c-8.6-2.8-13.2-11.1-14.6-21.5c-1.9-15.1,9-22,21-22.4C373.2,117.5,384.5,122.1,383.6,138.9z"/>
	<path class="st8" d="M365.8,112c-1.3,1.3-4.5,6.9-4.2,9.3c0,0.3,1.5,0.4,1.6,0.1c1.8-4.2,5.2-7.4,6.3-8.7
		C369.9,112.2,366.7,111.1,365.8,112z"/>
</g>
<circle class="st13" cx="414.6" cy="151.5" r="5.2"/>
<circle class="st4" cx="406" cy="156.1" r="6.2"/>
</svg>
