<svg width="95" height="80" viewBox="0 0 95 80" fill="none" xmlns="http://www.w3.org/2000/svg">
<g clip-path="url(#clip0_1591_4336)">
<path d="M89.1646 9.04599C79.5968 -2.18209 62.5307 -2.29975 52.0468 8.08791L47.9753 12.122C47.7039 12.3909 47.2628 12.3909 46.9914 12.122L42.3432 7.51642C32.6735 -2.09805 16.9646 -2.09805 7.26105 7.49961C-2.42556 17.0973 -2.42556 32.6619 7.26105 42.2596L42.6146 77.3054C43.9548 78.6332 45.7191 79.3056 47.5003 79.3056C49.2646 79.3056 51.0289 78.6332 52.3691 77.3054L87.7226 42.2596C96.9173 33.1494 97.3923 18.6941 89.1477 9.02919L89.1646 9.04599Z" fill="#206095"/>
<path d="M43.3095 61.5894C42.3086 61.5894 41.3926 61.0011 40.9854 60.0934L31.0443 37.8894L26.2265 46.092C25.7684 46.8651 24.9372 47.3526 24.0211 47.3526H7.58273C6.17469 47.3526 5.03809 46.2264 5.03809 44.8313C5.03809 43.4362 6.17469 42.31 7.58273 42.31H22.5622L29.1443 31.0988C29.6193 30.2751 30.5184 29.8213 31.4854 29.8549C32.4354 29.9054 33.2836 30.4937 33.6738 31.3509L43.1229 52.4456L55.0827 21.2154C55.4559 20.2573 56.372 19.6017 57.4238 19.5849C58.4586 19.5681 59.4086 20.1732 59.8158 21.1313L68.8238 42.31H86.6872C88.0952 42.31 89.2318 43.4362 89.2318 44.8313C89.2318 46.2264 88.0952 47.3526 86.6872 47.3526H67.1443C66.1265 47.3526 65.1934 46.7475 64.8033 45.8062L57.6104 28.88L45.7184 59.959C45.3452 60.9171 44.4461 61.5558 43.4113 61.5894C43.3943 61.5894 43.3604 61.5894 43.3434 61.5894H43.3095Z" fill="#E9EFF4"/>
</g>
<defs>
<clipPath id="clip0_1591_4336">
<rect width="95" height="79" fill="white" transform="translate(0 0.305542)"/>
</clipPath>
</defs>
</svg>
