<svg width="17" height="24" viewBox="0 0 17 24" fill="none" xmlns="http://www.w3.org/2000/svg">
<path d="M10.2451 0.698242C12.2764 0.698242 14.3076 1.12533 16.3389 1.97949L14.8857 5.57324C13.2503 4.90658 11.8337 4.57324 10.6357 4.57324C9.82324 4.57324 9.19824 4.80762 8.76074 5.27637C8.32324 5.7347 8.10449 6.39616 8.10449 7.26074V10.2764H13.9639V13.6982H8.10449V15.9326C8.10449 17.7035 7.31803 18.9951 5.74512 19.8076H16.9639V23.8701H0.588867V19.9951C1.66178 19.5368 2.39616 19.0107 2.79199 18.417C3.19824 17.8232 3.40137 17.0055 3.40137 15.9639V13.6982H0.620117V10.2764H3.40137V7.22949C3.40137 5.13574 3.99512 3.52637 5.18262 2.40137C6.38053 1.26595 8.06803 0.698242 10.2451 0.698242Z" fill="#206095"/>
</svg>
