<svg width="59" height="82" viewBox="0 0 59 82" fill="none" xmlns="http://www.w3.org/2000/svg">
<g clip-path="url(#clip0_1765_4423)">
<path d="M0.0996094 3.12833V78.3426C0.0996094 79.9337 1.40461 81.2355 2.99961 81.2355H55.1996C56.7946 81.2355 58.0996 79.9337 58.0996 78.3426V17.5926L40.7141 0.235474H2.99961C1.40461 0.235474 0.0996094 1.53726 0.0996094 3.12833Z" fill="#206095"/>
<path d="M43.5992 17.5926H58.0992L40.6992 0.235474V14.6998C40.6992 16.2908 41.9897 17.5926 43.5992 17.5926Z" fill="#003C57"/>
<path d="M8.63984 21.9609H24.2563C25.4598 21.9609 26.4313 20.9918 26.4313 19.7912C26.4313 18.5907 25.4598 17.6216 24.2563 17.6216H8.63984C7.43634 17.6216 6.46484 18.5907 6.46484 19.7912C6.46484 20.9918 7.43634 21.9609 8.63984 21.9609Z" fill="#E9EFF4"/>
<path d="M8.63984 32.0569H30.7233C31.9268 32.0569 32.8983 31.0878 32.8983 29.8873C32.8983 28.6868 31.9268 27.7177 30.7233 27.7177H8.63984C7.43634 27.7177 6.46484 28.6868 6.46484 29.8873C6.46484 31.0878 7.43634 32.0569 8.63984 32.0569Z" fill="#E9EFF4"/>
<path d="M49.7618 53.7245H8.63984C7.43634 53.7245 6.46484 54.6936 6.46484 55.8941C6.46484 57.0947 7.43634 58.0638 8.63984 58.0638H49.7618C50.9653 58.0638 51.9368 57.0947 51.9368 55.8941C51.9368 54.6936 50.9653 53.7245 49.7618 53.7245Z" fill="#E9EFF4"/>
<path d="M49.7618 63.8495H8.63984C7.43634 63.8495 6.46484 64.8186 6.46484 66.0191C6.46484 67.2197 7.43634 68.1888 8.63984 68.1888H49.7618C50.9653 68.1888 51.9368 67.2197 51.9368 66.0191C51.9368 64.8186 50.9653 63.8495 49.7618 63.8495Z" fill="#E9EFF4"/>
<path d="M19.3117 38.5514H6.26172V47.23H19.3117V38.5514Z" fill="#E9EFF4"/>
<path d="M35.6242 38.5514H22.5742V47.23H35.6242V38.5514Z" fill="#E9EFF4"/>
<path d="M51.9367 38.5514H38.8867V47.23H51.9367V38.5514Z" fill="#E9EFF4"/>
</g>
<defs>
<clipPath id="clip0_1765_4423">
<rect width="58" height="81" fill="white" transform="translate(0.0996094 0.235474)"/>
</clipPath>
</defs>
</svg>
