<?xml version="1.0" encoding="utf-8"?>
<!-- Generator: Adobe Illustrator 27.2.0, SVG Export Plug-In . SVG Version: 6.00 Build 0)  -->
<svg version="1.1" id="Layer_1" xmlns="http://www.w3.org/2000/svg" xmlns:xlink="http://www.w3.org/1999/xlink" x="0px" y="0px"
	 viewBox="0 0 41 36.1" style="enable-background:new 0 0 41 36.1;" xml:space="preserve">
<style type="text/css">
	.st0{clip-path:url(#SVGID_00000039837962967561793230000017851118243896724895_);}
	.st1{fill:#003C57;}
	.st2{fill:#206095;}
	.st3{fill:#F5F5F6;}
</style>
<g>
	<defs>
		<rect id="SVGID_1_" width="41" height="36"/>
	</defs>
	<clipPath id="SVGID_00000100368418730681526760000003103745603787457471_">
		<use xlink:href="#SVGID_1_"  style="overflow:visible;"/>
	</clipPath>
	<g style="clip-path:url(#SVGID_00000100368418730681526760000003103745603787457471_);">
		<path class="st1" d="M11.9,0h-1.8c-0.6,0-0.8,0.3-1,0.8l-4,9.7h3.2l4-9.7C12.6,0.3,12.4,0,11.9,0L11.9,0z"/>
		<path class="st1" d="M27.6,0h1.8c0.6,0,0.8,0.3,1,0.8l4,9.7h-3.2l-4-9.7C27,0.3,27.2,0,27.6,0L27.6,0z"/>
		<path class="st2" d="M32.4,36H8.6c-2.3,0-4-2.3-4.2-4.3C4.2,29.7,2.9,15,2.9,15h35.1c0,0-1.3,14.6-1.5,16.7
			C36.4,33.8,34.7,36,32.4,36z"/>
		<path class="st2" d="M40.3,10.5H0.7c-0.4,0-0.7,0.3-0.7,0.8v3C0,14.7,0.3,15,0.7,15h39.5c0.4,0,0.7-0.3,0.7-0.8v-3
			C41,10.8,40.7,10.5,40.3,10.5z"/>
		<path class="st3" d="M24,18h0.7c0.4,0,0.7,0.3,0.7,0.8l-0.9,12c0,0.4-0.3,0.8-0.7,0.8h-0.7c-0.4,0-0.7-0.3-0.7-0.8l0.9-12
			C23.3,18.3,23.6,18,24,18L24,18z"/>
		<path class="st3" d="M16.3,18H17c0.4,0,0.7,0.3,0.7,0.8l0.9,12c0,0.4-0.3,0.8-0.7,0.8h-0.7c-0.4,0-0.7-0.3-0.7-0.8l-0.9-12
			C15.5,18.3,15.9,18,16.3,18L16.3,18z"/>
		<path class="st3" d="M30.8,18h0.7c0.4,0,0.7,0.3,0.7,0.8l-0.7,12c0,0.4-0.3,0.8-0.7,0.8H30c-0.4,0-0.7-0.3-0.7-0.8l0.7-12
			C30,18.3,30.3,18,30.8,18L30.8,18z"/>
		<path class="st3" d="M9.5,18h0.7c0.4,0,0.7,0.3,0.7,0.8l0.7,12c0,0.4-0.3,0.8-0.7,0.8h-0.7c-0.4,0-0.7-0.3-0.7-0.8l-0.7-12
			C8.8,18.3,9.1,18,9.5,18L9.5,18z"/>
	</g>
</g>
</svg>
