<svg width="104" height="104" viewBox="0 0 104 104" fill="none" xmlns="http://www.w3.org/2000/svg">
<path d="M51.6875 0.0876465C23.2521 0.0876465 0.1875 23.1523 0.1875 51.5876C0.1875 80.023 23.2521 103.088 51.6875 103.088C80.1229 103.088 103.188 80.023 103.188 51.5876C103.188 23.1523 80.1229 0.0876465 51.6875 0.0876465ZM44.7166 16.678C44.7166 15.4273 46.3536 15.2985 46.5191 16.6412C47.1077 21.2026 47.6227 24.9916 47.8802 29.461C48.1929 34.7582 48.248 39.9082 44.2752 42.8694C43.9257 43.1453 43.6866 43.458 43.5763 43.881C42.4359 48.7368 42.9141 56.4618 43.5763 64.6466C43.8705 68.4907 45.3052 82.1382 44.5511 85.3753C44.128 87.1226 42.6566 88.4285 40.6702 88.3734C38.5182 88.3182 37.2859 87.1962 36.8077 85.5041C35.9064 82.3037 37.4514 68.4907 37.7641 64.6466C38.4079 56.4618 38.8861 48.7368 37.7641 43.881C37.6538 43.458 37.4146 43.1453 37.0652 42.8694C33.0923 39.9082 33.1475 34.7582 33.4602 29.461C33.7177 24.9916 34.2879 21.221 34.8213 16.6412C34.9684 15.3537 36.5502 15.3537 36.5502 16.6596C36.5502 16.6596 36.587 29.8841 36.587 30.0312C36.6238 30.8957 37.1387 31.2635 37.8377 31.2635C38.555 31.2819 39.1068 30.9509 39.1804 30.0312C39.1804 29.8657 39.7321 17.8 39.8057 16.6412C39.8609 15.3353 41.553 15.3537 41.645 16.6596C41.8105 19.3266 42.0496 28.3023 42.1968 30.068C42.252 30.583 42.6014 31.2635 43.4475 31.2635C44.5327 31.2819 44.7902 30.583 44.8086 30.068L44.7534 16.678H44.7166ZM69.6573 85.4489C69.2343 87.4169 68.1123 88.3734 66.4018 88.3734C64.4705 88.3734 63.1646 87.5457 62.5393 85.5409C60.792 79.9126 64.912 58.816 63.8268 47.8723C63.7716 47.3941 63.5325 47.0078 63.2014 46.6951C61.3989 45.003 60.8471 44.1569 60.8839 41.5635C60.9943 34.5191 62.2266 25.6353 63.9739 20.1543C64.8936 17.2666 66.2179 14.6916 67.4686 14.6916C68.5721 14.6916 68.6089 16.1446 68.6825 18.5357L68.6273 46.7135C68.6273 46.9159 68.6273 47.0814 68.5905 47.2653C67.303 58.0435 70.908 79.5632 69.6573 85.4489Z" fill="#206095"/>
</svg>
