<svg width="102" height="94" viewBox="0 0 102 94" fill="none" xmlns="http://www.w3.org/2000/svg">
<g clip-path="url(#clip0_1591_4426)">
<path d="M86.4309 7.83333H78.6462C76.5053 7.83333 74.7538 9.59583 74.7538 11.75V23.5L55.1167 4.15166C52.8396 1.86041 49.1419 1.86041 46.8648 4.15166L12.4756 39.1667V88.125C12.4756 91.3562 15.1029 94 18.3142 94H84.4847C87.7154 94 90.3233 91.3562 90.3233 88.125V11.75C90.3233 9.59583 88.5912 7.83333 86.4309 7.83333ZM31.9375 66.74H24.1527V58.9067H31.9375V66.74ZM31.9375 54.99H24.1527V47.1567H31.9375V54.99ZM43.6147 66.74H35.8299V58.9067H43.6147V66.74ZM43.6147 54.99H35.8299V47.1567H43.6147V54.99Z" fill="#206095"/>
<path d="M95.6554 51.1323L53.7538 8.98897C52.2358 7.46147 49.7642 7.46147 48.2461 8.98897L6.36404 51.1323C5.21578 52.2877 3.3669 52.2877 2.23811 51.1323L0.856308 49.7419C-0.291946 48.5865 -0.291946 46.7261 0.856308 45.5902L42.7384 3.44688C47.2925 -1.13562 54.688 -1.13562 59.2616 3.44688L101.163 45.5902C102.311 46.7456 102.311 48.606 101.163 49.7419L99.7813 51.1323C98.6331 52.2877 96.7842 52.2877 95.6554 51.1323Z" fill="#003C57"/>
<path d="M72.8069 70.5H57.2373V94H72.8069V70.5Z" fill="#003C57"/>
</g>
<defs>
<clipPath id="clip0_1591_4426">
<rect width="102" height="94" fill="white"/>
</clipPath>
</defs>
</svg>
