<svg width="97" height="79" viewBox="0 0 97 79" fill="none" xmlns="http://www.w3.org/2000/svg">
<path d="M10.7314 28.7358L62.2988 2.95215" stroke="#003C57" stroke-width="5" stroke-linecap="round" stroke-linejoin="round"/>
<path d="M96.6782 28.478C96.6782 25.1089 94.6327 22.6852 91.3324 22.0321C91.1777 21.9977 87.8086 21.9805 82.5659 21.9633V21.8602H14.5314V21.9633C9.27148 21.9805 5.90241 22.0149 5.74771 22.0321C2.46459 22.6852 0.41908 25.1261 0.41908 28.478C0.41908 36.9866 0.487837 68.5458 0.41908 71.5711C0.350323 74.648 1.98329 77.2779 4.80231 78.1374C6.09149 78.5327 7.51819 78.5671 8.87613 78.5671C10.0622 78.5671 12.4171 78.5671 12.4171 78.5671H84.6802C85.8662 78.5671 87.0351 78.5671 88.2212 78.5671C89.5791 78.5671 91.0058 78.5327 92.295 78.1374C95.114 77.2779 96.747 74.648 96.6782 71.5711C96.6094 68.5458 96.6782 36.9866 96.6782 28.478Z" fill="#206095"/>
<path d="M87.2261 31.7783H54.5667C52.6681 31.7783 51.1289 33.3175 51.1289 35.2161V38.654C51.1289 40.5526 52.6681 42.0918 54.5667 42.0918H87.2261C89.1247 42.0918 90.6639 40.5526 90.6639 38.654V35.2161C90.6639 33.3175 89.1247 31.7783 87.2261 31.7783Z" fill="#E9EFF4"/>
<path d="M52.8477 50.8067H88.9448" stroke="#003C57" stroke-width="4" stroke-linecap="round" stroke-linejoin="round"/>
<path d="M52.8477 59.1606H88.9448" stroke="#003C57" stroke-width="4" stroke-linecap="round" stroke-linejoin="round"/>
<path d="M52.8477 67.5145H88.9448" stroke="#003C57" stroke-width="4" stroke-linecap="round" stroke-linejoin="round"/>
<path d="M38.5967 35.1818C29.8474 27.9452 16.7837 29.8188 10.0111 39.2556C5.43883 45.6156 5.23256 54.743 9.49547 61.0858C13.6209 67.2395 19.2933 70.0414 26.1689 70.2992C30.5178 70.368 34.4197 68.9069 37.9951 66.3457C40.5562 64.5065 42.4814 62.014 43.9769 59.0575C45.5583 55.9119 46.2115 52.5944 45.9364 49.0706C45.4723 43.2435 42.8768 38.6712 38.631 35.1646L38.5967 35.1818Z" fill="#003C57"/>
<path d="M40.5042 56.5307C39.4385 59.1434 37.7711 61.1202 35.6913 62.7875C32.7691 65.1253 29.4344 65.9503 26.1513 66.0019C19.1038 65.8472 13.5001 61.5843 11.3858 54.9665C9.58097 49.3456 11.5233 42.6419 16.0613 38.8603C22.6447 33.3425 31.7206 33.8926 37.668 40.1323C41.6387 44.3092 42.756 51.0473 40.5042 56.5307Z" fill="#E9EFF4"/>
</svg>
