<svg width="74" height="80" viewBox="0 0 74 80" fill="none" xmlns="http://www.w3.org/2000/svg">
<g clip-path="url(#clip0_1770_4514)">
<path d="M51.4499 6.49731C36.0356 9.12124 20.7056 9.12124 5.45986 6.49731C2.59601 6.49731 0.265625 9.31874 0.265625 12.7609V46.7732C0.265625 50.5116 0.911394 54.2641 2.35736 57.6921C8.16928 71.4466 19.1333 78.9516 28.3285 79.8545C38.8433 78.2462 49.1476 70.5014 54.3699 57.8473C55.7737 54.4475 56.4054 50.7655 56.4054 47.0977V12.4646C56.4054 9.17767 54.1733 6.49731 51.4639 6.49731H51.4499ZM5.86697 37.8998C5.86697 33.3996 9.50293 29.7459 13.9812 29.7459C18.4595 29.7459 22.1095 33.3996 22.1095 37.8998H5.86697ZM28.3145 59.8928C11.6087 59.8928 11.4122 50.3987 11.4122 49.9896C11.4122 48.4237 12.6616 47.1682 14.2199 47.1682C15.7781 47.1682 17.0275 48.4237 17.0275 49.9896C17.1679 51.3862 19.7089 54.25 28.3145 54.25C36.9201 54.25 39.461 51.3862 39.6014 49.8768C39.7418 48.3814 41.1456 47.14 42.5354 47.2528C44.0376 47.3234 45.2168 48.4943 45.2168 50.0037C45.2168 50.4128 45.0202 59.907 28.3145 59.907V59.8928ZM33.9439 37.8998C33.9439 33.3996 37.5799 29.7459 42.0581 29.7459C46.5364 29.7459 50.1864 33.3996 50.1864 37.8998H33.9439Z" fill="#206095"/>
<path d="M62.498 74.9735L65.1373 24.1031C65.1373 23.7222 65.2355 23.3413 65.4321 23.0169L66.4007 16.8238C66.8079 16.1185 67.8327 16.1185 68.2538 16.8238L69.4892 23.0169C69.6857 23.3413 69.784 23.7222 69.784 24.1031L72.1565 74.9735C72.1565 77.6538 69.9946 79.8122 67.3413 79.8122C64.674 79.8122 62.5261 77.6397 62.5261 74.9735H62.498Z" fill="#206095"/>
<path d="M67.4121 0.854492C67.4121 0.854492 61.3896 7.62592 61.3896 12.5493C61.3896 21.6202 73.2521 21.6202 73.2521 12.5493C73.2521 7.82342 66.6541 9.79842 67.4121 0.854492Z" fill="#206095"/>
<path d="M69.9952 18.6859H64.5904C63.815 18.6859 63.1865 19.3175 63.1865 20.0966V28.0107C63.1865 28.7899 63.815 29.4214 64.5904 29.4214H69.9952C70.7705 29.4214 71.399 28.7899 71.399 28.0107V20.0966C71.399 19.3175 70.7705 18.6859 69.9952 18.6859Z" fill="#003C57"/>
</g>
<defs>
<clipPath id="clip0_1770_4514">
<rect width="73" height="79" fill="white" transform="translate(0.251953 0.854492)"/>
</clipPath>
</defs>
</svg>
