<svg width="85" height="75" viewBox="0 0 85 75" fill="none" xmlns="http://www.w3.org/2000/svg">
<g clip-path="url(#clip0_1591_4288)">
<path d="M72.8571 55.6528H66.7857C65.1091 55.6528 63.75 57.0333 63.75 58.7362V71.0695C63.75 72.7724 65.1091 74.1528 66.7857 74.1528H72.8571C74.5337 74.1528 75.8929 72.7724 75.8929 71.0695V58.7362C75.8929 57.0333 74.5337 55.6528 72.8571 55.6528Z" fill="#003C57"/>
<path d="M18.2146 55.6528H12.1431C10.4666 55.6528 9.10742 57.0333 9.10742 58.7362V71.0695C9.10742 72.7724 10.4666 74.1528 12.1431 74.1528H18.2146C19.8911 74.1528 21.2503 72.7724 21.2503 71.0695V58.7362C21.2503 57.0333 19.8911 55.6528 18.2146 55.6528Z" fill="#003C57"/>
<path d="M75.8931 27.9028H80.4467C82.9664 27.9028 85.0003 29.9687 85.0003 32.5278V34.0695C85.0003 35.7653 83.6342 37.1528 81.9646 37.1528H75.8931C74.2235 37.1528 72.8574 35.7653 72.8574 34.0695V30.9862C72.8574 29.2903 74.2235 27.9028 75.8931 27.9028Z" fill="#003C57"/>
<path d="M4.55357 27.9028H9.10714C10.7768 27.9028 12.1429 29.2903 12.1429 30.9862V34.0695C12.1429 35.7653 10.7768 37.1528 9.10714 37.1528H3.03571C1.36607 37.1528 0 35.7653 0 34.0695V32.5278C0 29.9687 2.03393 27.9028 4.55357 27.9028Z" fill="#003C57"/>
<path d="M12.9932 34.0694L18.8521 10.2353C19.8691 6.10358 23.4967 3.23608 27.686 3.23608H57.2994C61.4887 3.23608 65.1164 6.119 66.1333 10.2353L71.9923 34.0694H12.9932Z" fill="#E9EFF4"/>
<path d="M57.2994 6.3195C60.0922 6.3195 62.5056 8.24658 63.1887 10.9907L68.1065 30.9862H16.8788L21.7967 10.9907C22.4797 8.24658 24.8931 6.3195 27.686 6.3195H57.2994ZM57.2994 0.152832H27.686C22.1155 0.152832 17.2583 4.007 15.9074 9.49533L9.10742 37.1528H75.8931L69.078 9.49533C67.7271 4.007 62.8699 0.152832 57.2994 0.152832V0.152832Z" fill="#003C57"/>
<path d="M21.2499 27.9028H63.7499C72.1284 27.9028 78.9284 34.8095 78.9284 43.3195V58.7362C78.9284 62.1432 76.2115 64.9028 72.857 64.9028H12.1427C8.78825 64.9028 6.07129 62.1432 6.07129 58.7362V43.3195C6.07129 34.8095 12.8713 27.9028 21.2499 27.9028Z" fill="#206095"/>
<path d="M18.214 54.1112C21.5672 54.1112 24.2854 51.3503 24.2854 47.9445C24.2854 44.5387 21.5672 41.7778 18.214 41.7778C14.8608 41.7778 12.1426 44.5387 12.1426 47.9445C12.1426 51.3503 14.8608 54.1112 18.214 54.1112Z" fill="#E9EFF4"/>
<path d="M66.7853 54.1112C70.1385 54.1112 72.8567 51.3503 72.8567 47.9445C72.8567 44.5387 70.1385 41.7778 66.7853 41.7778C63.4321 41.7778 60.7139 44.5387 60.7139 47.9445C60.7139 51.3503 63.4321 54.1112 66.7853 54.1112Z" fill="#E9EFF4"/>
<path d="M54.6431 49.4861H30.3574V55.6528H54.6431V49.4861Z" fill="#E9EFF4"/>
</g>
<defs>
<clipPath id="clip0_1591_4288">
<rect width="85" height="74" fill="white" transform="translate(0 0.152832)"/>
</clipPath>
</defs>
</svg>
